<svg xmlns="http://www.w3.org/2000/svg" xmlns:xlink="http://www.w3.org/1999/xlink" version="1.1" x="0px" y="0px" viewBox="0 0 60 75" enable-background="new 0 0 60 60" xml:space="preserve"><g><path d="M57.578125,28.1948242c-0.2685547-1.7075195-1.8720703-2.8730469-3.5800781-2.6040039l-7.7421875,1.2211914   c0,0-1.5878906-8.8686523-1.5996094-8.9174805c-0.0332031-0.1337891-0.2919922-2.390625-2.96875-2.3842773   c-0.0224609,0-12.4121094-0.0063477-12.4121094-0.0063477c-1.203125,0-2.3007813,0.6899414-2.8212891,1.7749023   l-3.6523438,7.6040039c-0.7490234,1.5585938-0.0917969,3.4291992,1.4658203,4.1772461   c0.4375,0.2099609,0.8994141,0.3095703,1.3535156,0.3095703c1.1660156,0,2.2861328-0.6552734,2.8242188-1.7758789   l2.7988281-5.8291016h4.5859375L23.3066406,41.3095703l-7.6113281,5.3349609   c-1.4160156,0.9931641-1.7578125,2.9453125-0.765625,4.3613281c0.6083984,0.8681641,1.5791016,1.3330078,2.5654297,1.3330078   c0.6210938,0,1.2480469-0.1835938,1.7949219-0.5683594l8.1308594-5.7001953   c0.3427734-0.2382813,0.6328125-0.546875,0.8544922-0.9013672l4.296875-6.8554688l3.8955078,4.0820313l-4.3935547,8.2802734   c-0.8095703,1.5263672-0.2285156,3.421875,1.2988281,4.2333984c0.4677734,0.2460938,0.9697266,0.3642578,1.4638672,0.3642578   c1.1220703,0,2.2070313-0.6025391,2.7695313-1.6621094l5.4501953-10.2744141   c0.6318359-1.1923828,0.4296875-2.6533203-0.5-3.6279297l-6.5185547-6.8330078l3.8818359-5.9291992l0.7070313,3.9829102   c0.2988281,1.6806641,1.890625,2.8183594,3.5712891,2.5449219l10.7763672-1.6992188   C56.6826172,31.5058594,57.8476563,29.902832,57.578125,28.1948242z"/><circle cx="46.4492188" cy="10.4260254" r="5.7004395"/><path d="M8.5576172,16.6416016h14.4355469c0.5771484,0,1.0439453-0.4672852,1.0439453-1.043457   s-0.4667969-1.043457-1.0439453-1.043457H8.5576172c-0.5771484,0-1.0439453,0.4672852-1.0439453,1.043457   S7.9804688,16.6416016,8.5576172,16.6416016z"/><path d="M19.9707031,8.9414063H34.40625c0.5771484,0,1.0429688-0.4672852,1.0429688-1.043457   s-0.4658203-1.043457-1.0429688-1.043457H19.9707031c-0.5771484,0-1.0429688,0.4672852-1.0429688,1.043457   S19.3935547,8.9414063,19.9707031,8.9414063z"/><path d="M8.2314453,33.2382813c0,0.5771484,0.4667969,1.0439453,1.0439453,1.0439453h14.4355469   c0.5761719,0,1.0429688-0.4667969,1.0429688-1.0439453c0-0.5761719-0.4667969-1.0429688-1.0429688-1.0429688H9.2753906   C8.6982422,32.1953125,8.2314453,32.6621094,8.2314453,33.2382813z"/><path d="M3.9697266,25.4628906h14.4355469c0.5771484,0,1.0439453-0.4672852,1.0439453-1.043457   s-0.4667969-1.043457-1.0439453-1.043457H3.9697266c-0.5761719,0-1.0429688,0.4672852-1.0429688,1.043457   S3.3935547,25.4628906,3.9697266,25.4628906z"/><path d="M18.90625,40.6816406c0-0.5771484-0.4667969-1.0439453-1.0439453-1.0439453H3.4267578   c-0.5771484,0-1.0439453,0.4667969-1.0439453,1.0439453c0,0.5761719,0.4667969,1.0429688,1.0439453,1.0429688h14.4355469   C18.4394531,41.7246094,18.90625,41.2578125,18.90625,40.6816406z"/></g></svg>