<?xml version="1.0" encoding="UTF-8" standalone="no"?>
<svg
   xmlns:dc="http://purl.org/dc/elements/1.1/"
   xmlns:cc="http://creativecommons.org/ns#"
   xmlns:rdf="http://www.w3.org/1999/02/22-rdf-syntax-ns#"
   xmlns:svg="http://www.w3.org/2000/svg"
   xmlns="http://www.w3.org/2000/svg"
   xmlns:sodipodi="http://sodipodi.sourceforge.net/DTD/sodipodi-0.dtd"
   xmlns:inkscape="http://www.inkscape.org/namespaces/inkscape"
   inkscape:version="1.0 (4035a4fb49, 2020-05-01)"
   sodipodi:docname="NISEI_WEYLAND.svg"
   viewBox="0 0 1056 1056"
   height="1056"
   width="1056"
   xml:space="preserve"
   id="svg14918"
   version="1.1"><metadata
     id="metadata14924"><rdf:RDF><cc:Work
         rdf:about=""><dc:format>image/svg+xml</dc:format><dc:type
           rdf:resource="http://purl.org/dc/dcmitype/StillImage" /><dc:title></dc:title></cc:Work></rdf:RDF></metadata><defs
     id="defs14922"><clipPath
       id="clipPath14934"
       clipPathUnits="userSpaceOnUse"><path
         id="path14932"
         d="m 264.755,429.711 33.177,88.66 h 193.805 l 33.168,-88.655 31.288,82.485 L 394.835,697.104 233.472,512.196 Z M 624.41,55.831 H 165.23 L 46.419,367.198 743.24,369.334 Z" /></clipPath><linearGradient
       id="linearGradient14944"
       spreadMethod="pad"
       gradientTransform="matrix(0,-641.27209,-641.27209,0,394.82959,697.10345)"
       gradientUnits="userSpaceOnUse"
       y2="0"
       x2="1"
       y1="0"
       x1="0"><stop
         id="stop14940"
         offset="0"
         style="stop-opacity:1;stop-color:#bcbec0" /><stop
         id="stop14942"
         offset="1"
         style="stop-opacity:1;stop-color:#414142" /></linearGradient><clipPath
       id="clipPath14954"
       clipPathUnits="userSpaceOnUse"><path
         id="path14952"
         d="m 233.472,512.196 31.283,-82.485 33.177,88.66 h 193.805 l 33.168,-88.655 31.289,82.485 -161.359,184.902 z M 46.419,367.198 165.23,55.831 h 459.18 l 118.83,313.503 z" /></clipPath><clipPath
       id="clipPath14962"
       clipPathUnits="userSpaceOnUse"><path
         id="path14960"
         d="M -118.87,715.06 H 908.529 V 47.0397 H -118.87 Z" /></clipPath><clipPath
       id="clipPath14966"
       clipPathUnits="userSpaceOnUse"><path
         id="path14964"
         d="M 907.233,48.335 H -118.869 V 47.04 H 907.233 Z m 0,9.811 H -118.869 V 54.001 H 907.233 Z m 1.295,17.305 H -118.87 V 72.86 H 908.528 Z m -1.295,15.857 H -118.87 V 86.125 H 907.233 Z m 0,12.816 H -118.87 V 102.57 H 907.233 Z m 0,7.272 H -118.87 v -2.592 H 907.233 Z m 0,11.471 H -118.869 v -4.146 H 907.233 Z m 0,12.515 H -118.869 v -1.037 H 907.233 Z m 0,15.494 H -118.87 v -3.887 H 907.233 Z m 0,19.214 H -118.87 v -2.591 H 907.233 Z m 0,13.295 H -118.869 v -1.037 H 907.233 Z m 0,10.906 H -118.87 V 191.7 H 907.233 Z m 0,21.825 H -118.87 v -5.183 H 907.233 Z m 0,13.601 H -118.869 v -1.295 H 907.233 Z m 0,9.81 H -118.869 v -4.145 H 907.233 Z m 1.295,17.306 H -118.87 v -2.591 H 908.528 Z m -1.295,15.855 H -118.87 v -5.182 H 907.233 Z m 0,12.818 H -118.87 v -1.554 H 907.233 Z m 0,7.272 H -118.87 v -2.592 H 907.233 Z m 0,11.471 H -118.869 v -4.146 H 907.233 Z m 0,12.515 H -118.869 v -1.037 H 907.233 Z m 0,15.494 H -118.87 v -3.887 H 907.233 Z m 0,19.214 H -118.87 v -2.591 H 907.233 Z m 0,13.295 H -118.869 V 363.73 H 907.233 Z m 0,10.906 H -118.87 v -2.591 H 907.233 Z m 0,21.825 H -118.87 v -5.182 H 907.233 Z m 0,13.601 H -118.869 v -1.295 H 907.233 Z m 0,9.81 H -118.869 v -4.145 H 907.233 Z m 1.295,17.306 H -118.87 v -2.591 H 908.528 Z m -1.295,15.856 H -118.87 v -5.183 H 907.233 Z m 0,12.816 H -118.87 v -1.554 H 907.233 Z m 0,7.273 H -118.87 v -2.591 H 907.233 Z m 0,11.47 H -118.869 v -4.145 H 907.233 Z m 0,12.516 H -118.869 v -1.038 H 907.233 Z m 0,15.494 H -118.87 v -3.887 H 907.233 Z m 0,19.214 H -118.87 v -2.591 H 907.233 Z m 0,13.294 H -118.869 V 545.11 H 907.233 Z m 0,10.907 H -118.87 v -2.591 H 907.233 Z m 0,21.824 H -118.87 v -5.182 H 907.233 Z m 0,13.601 H -118.869 v -1.295 H 907.233 Z m 0,9.811 H -118.869 v -4.145 H 907.233 Z m 1.295,17.306 H -118.87 v -2.591 H 908.528 Z m -1.295,15.856 H -118.87 V 630.27 H 907.233 Z m 0,12.816 H -118.87 v -1.554 H 907.233 Z m 0,7.273 H -118.87 v -2.591 H 907.233 Z m 0,11.47 H -118.869 v -4.145 H 907.233 Z m 0,12.516 H -118.869 V 678.49 H 907.233 Z m 0,15.493 H -118.87 v -3.887 H 907.233 Z m 0,11.271 H 649.668 v -2.591 h 257.565 z m 0,7.473 H 657.899 v 1.295 h 249.334 z" /></clipPath><linearGradient
       id="linearGradient14978"
       spreadMethod="pad"
       gradientTransform="matrix(0,-668.02051,-668.02051,0,394.82959,715.06012)"
       gradientUnits="userSpaceOnUse"
       y2="0"
       x2="1"
       y1="0"
       x1="0"><stop
         id="stop14968"
         offset="0"
         style="stop-opacity:1;stop-color:#e7e8e9" /><stop
         id="stop14970"
         offset="0.25974711"
         style="stop-opacity:1;stop-color:#e7e8e9" /><stop
         id="stop14972"
         offset="0.453125"
         style="stop-opacity:1;stop-color:#bcbec0" /><stop
         id="stop14974"
         offset="0.56299905"
         style="stop-opacity:1;stop-color:#939598" /><stop
         id="stop14976"
         offset="1"
         style="stop-opacity:1;stop-color:#939598" /></linearGradient></defs><sodipodi:namedview
     inkscape:current-layer="g14926"
     inkscape:window-maximized="0"
     inkscape:window-y="0"
     inkscape:window-x="0"
     inkscape:cy="528"
     inkscape:cx="528"
     inkscape:zoom="0.81439394"
     showgrid="false"
     id="namedview14920"
     inkscape:window-height="480"
     inkscape:window-width="736"
     inkscape:pageshadow="2"
     inkscape:pageopacity="0"
     guidetolerance="10"
     gridtolerance="10"
     objecttolerance="10"
     borderopacity="1"
     bordercolor="#666666"
     pagecolor="#ffffff" /><g
     transform="matrix(1.3333333,0,0,-1.3333333,0,1056)"
     inkscape:label="Weyland Glyph"
     inkscape:groupmode="layer"
     id="g14926"><g
       id="g14928"><g
         clip-path="url(#clipPath14934)"
         id="g14930"><g
           id="g14936"><g
             id="g14938"><path
               id="path14946"
               style="fill:url(#linearGradient14944);stroke:none"
               d="m 264.755,429.711 33.177,88.66 h 193.805 l 33.168,-88.655 31.288,82.485 L 394.835,697.104 233.472,512.196 Z M 624.41,55.831 H 165.23 L 46.419,367.198 743.24,369.334 Z" /></g></g></g></g><g
       id="g14948"><g
         clip-path="url(#clipPath14954)"
         id="g14950"><g
           id="g14956"><g
             id="g14958" /><g
             id="g14992"><g
               id="g14990"
               opacity="0.149994"
               clip-path="url(#clipPath14962)"><g
                 id="g14988"><g
                   id="g14986"
                   clip-path="url(#clipPath14966)"><g
                     id="g14984"><g
                       id="g14982"><path
                         id="path14980"
                         style="fill:url(#linearGradient14978);stroke:none"
                         d="M 907.233,48.335 H -118.869 V 47.04 H 907.233 Z m 0,9.811 H -118.869 V 54.001 H 907.233 Z m 1.295,17.305 H -118.87 V 72.86 H 908.528 Z m -1.295,15.857 H -118.87 V 86.125 H 907.233 Z m 0,12.816 H -118.87 V 102.57 H 907.233 Z m 0,7.272 H -118.87 v -2.592 H 907.233 Z m 0,11.471 H -118.869 v -4.146 H 907.233 Z m 0,12.515 H -118.869 v -1.037 H 907.233 Z m 0,15.494 H -118.87 v -3.887 H 907.233 Z m 0,19.214 H -118.87 v -2.591 H 907.233 Z m 0,13.295 H -118.869 v -1.037 H 907.233 Z m 0,10.906 H -118.87 V 191.7 H 907.233 Z m 0,21.825 H -118.87 v -5.183 H 907.233 Z m 0,13.601 H -118.869 v -1.295 H 907.233 Z m 0,9.81 H -118.869 v -4.145 H 907.233 Z m 1.295,17.306 H -118.87 v -2.591 H 908.528 Z m -1.295,15.855 H -118.87 v -5.182 H 907.233 Z m 0,12.818 H -118.87 v -1.554 H 907.233 Z m 0,7.272 H -118.87 v -2.592 H 907.233 Z m 0,11.471 H -118.869 v -4.146 H 907.233 Z m 0,12.515 H -118.869 v -1.037 H 907.233 Z m 0,15.494 H -118.87 v -3.887 H 907.233 Z m 0,19.214 H -118.87 v -2.591 H 907.233 Z m 0,13.295 H -118.869 V 363.73 H 907.233 Z m 0,10.906 H -118.87 v -2.591 H 907.233 Z m 0,21.825 H -118.87 v -5.182 H 907.233 Z m 0,13.601 H -118.869 v -1.295 H 907.233 Z m 0,9.81 H -118.869 v -4.145 H 907.233 Z m 1.295,17.306 H -118.87 v -2.591 H 908.528 Z m -1.295,15.856 H -118.87 v -5.183 H 907.233 Z m 0,12.816 H -118.87 v -1.554 H 907.233 Z m 0,7.273 H -118.87 v -2.591 H 907.233 Z m 0,11.47 H -118.869 v -4.145 H 907.233 Z m 0,12.516 H -118.869 v -1.038 H 907.233 Z m 0,15.494 H -118.87 v -3.887 H 907.233 Z m 0,19.214 H -118.87 v -2.591 H 907.233 Z m 0,13.294 H -118.869 V 545.11 H 907.233 Z m 0,10.907 H -118.87 v -2.591 H 907.233 Z m 0,21.824 H -118.87 v -5.182 H 907.233 Z m 0,13.601 H -118.869 v -1.295 H 907.233 Z m 0,9.811 H -118.869 v -4.145 H 907.233 Z m 1.295,17.306 H -118.87 v -2.591 H 908.528 Z m -1.295,15.856 H -118.87 V 630.27 H 907.233 Z m 0,12.816 H -118.87 v -1.554 H 907.233 Z m 0,7.273 H -118.87 v -2.591 H 907.233 Z m 0,11.47 H -118.869 v -4.145 H 907.233 Z m 0,12.516 H -118.869 V 678.49 H 907.233 Z m 0,15.493 H -118.87 v -3.887 H 907.233 Z m 0,11.271 H 649.668 v -2.591 h 257.565 z m 0,7.473 H 657.899 v 1.295 h 249.334 z" /></g></g></g></g></g></g></g></g></g><g
       transform="translate(615.7803,68.3311)"
       id="g14994"><path
         id="path14996"
         style="fill:#000000;fill-opacity:1;fill-rule:nonzero;stroke:none"
         d="M 0,0 109.333,288.447 -551.233,286.422 -441.941,0 Z M -459.16,-25 -587.488,311.312 145.587,313.559 17.26,-25 Z" /></g><g
       transform="translate(68.1724,352.2646)"
       id="g14998"><path
         id="path15000"
         style="fill:#000000;fill-opacity:1;fill-rule:nonzero;stroke:none"
         d="M 0,0 653.315,2.002 545.881,-281.434 H 107.389 Z m 696.821,32.137 -7.267,-0.023 -725.824,-2.224 -7.236,-0.023 2.58,-6.76 126.425,-331.323 1.227,-3.218 h 3.444 472.972 3.452 l 1.224,3.228 126.428,333.548 z M 660.566,7.024 -7.251,4.978 103.945,-286.434 H 549.333 L 660.566,7.024 M 689.57,27.114 563.142,-306.434 H 90.17 L -36.255,24.89 Z" /></g><g
       transform="translate(166.9517,58.3311)"
       id="g15002"><path
         id="path15004"
         style="fill:#dcdbdb;fill-opacity:1;fill-rule:nonzero;stroke:none"
         d="m 0,0 h 455.733 l 116.931,308.492 -689.571,-2.114 z M 459.184,-5 H -3.443 l -0.615,1.608 -120.1,314.748 3.618,0.011 700.454,2.147 z" /></g><g
       transform="translate(493.8223,491.3784)"
       id="g15006"><path
         id="path15008"
         style="fill:#000000;fill-opacity:1;fill-rule:nonzero;stroke:none"
         d="M 0,0 -7.289,19.493 H -28.1 -169.879 -190.688 l -7.291,-19.491 -31.044,-83.003 -39.934,105.364 169.97,194.769 -169.97,-194.769 39.934,-105.364 31.044,83.003 7.291,19.491 H -169.879 -28.1 -7.289 L 0,0 31.035,-82.999 Z M 31.163,-26.238 18.733,7.005 11.444,26.498 6.585,39.493 H -7.289 -28.1 h -141.779 -20.809 -13.874 l -4.859,-12.994 -7.29,-19.491 -12.436,-33.25 -16.86,44.485 147.02,168.471 L 48.027,18.249 Z M -98.987,224.736 -274.694,23.393 -228.992,-97.192 -187.22,14.493 H -10.758 L 31.003,-97.189 76.715,23.397 Z" /></g><g
       transform="translate(493.8223,491.3784)"
       id="g15010"><path
         id="path15012"
         style="fill:none;stroke:#000000;stroke-width:5;stroke-linecap:butt;stroke-linejoin:miter;stroke-miterlimit:10;stroke-dasharray:none;stroke-opacity:1"
         d="M 0,0 -7.289,19.493 H -28.1 -169.879 -190.688 l -7.291,-19.491 -31.044,-83.003 -39.934,105.364 169.97,194.769 -169.97,-194.769 39.934,-105.364 31.044,83.003 7.291,19.491 H -169.879 -28.1 -7.289 L 0,0 31.035,-82.999 Z M 31.163,-26.238 18.733,7.005 11.444,26.498 6.585,39.493 H -7.289 -28.1 h -141.779 -20.809 -13.874 l -4.859,-12.994 -7.29,-19.491 -12.436,-33.25 -16.86,44.485 147.02,168.471 L 48.027,18.249 Z M -98.987,224.736 -274.694,23.393 -228.992,-97.192 -187.22,14.493 H -10.758 L 31.003,-97.189 76.715,23.397 Z" /></g><g
       transform="translate(236.3408,511.6816)"
       id="g15014"><path
         id="path15016"
         style="fill:#dcdbdb;fill-opacity:1;fill-rule:nonzero;stroke:none"
         d="M 0,0 28.398,-74.879 59.857,9.189 h 197.274 l 31.45,-84.064 28.402,74.88 L 158.494,181.62 Z M 28.43,-89.062 -5.738,1.029 158.494,189.224 322.722,1.034 288.548,-89.057 253.662,4.189 H 63.325 Z" /></g><g
       transform="translate(632.79,552.0459)"
       id="g15018"><path
         id="path15020"
         style="fill:#516751;fill-opacity:1;fill-rule:nonzero;stroke:none"
         d="m 0,0 -108.254,-285.569 -72.688,194.394 H -294.974 L -367.681,-285.568 -475.913,0 h -107.238 l 158.803,-418.952 h 114.071 l 72.317,193.384 72.326,-193.384 H -51.565 L 107.241,0 Z" /></g><g
       transform="translate(467.1562,133.0937)"
       id="g15022"><path
         id="path15024"
         style="fill:#000000;fill-opacity:1;fill-rule:nonzero;stroke:none"
         d="M 0,0 H 114.068 L 272.875,418.952 H 165.634 L 57.38,133.383 -15.309,327.777 H -129.34 L -202.047,133.384 -310.279,418.952 H -417.518 L -258.714,0 h 114.07 l 72.317,193.384 z M -13.873,-20 -72.326,136.288 -130.77,-20 h -141.752 l -173.965,458.952 h 150.016 l 94.3,-248.808 58.958,157.633 H -1.434 L 57.509,190.145 151.827,438.952 H 301.845 L 127.876,-20 Z" /></g><g
       transform="translate(543.2373,259.3877)"
       id="g15026"><path
         id="path15028"
         style="fill:#ffffff;fill-opacity:1;fill-rule:nonzero;stroke:none"
         d="m 0,0 103.36,272.658 -13.807,20 L -18.701,7.089 v -56.423 z" /></g><g
       transform="translate(246.7759,259.3877)"
       id="g15030"><path
         id="path15032"
         style="fill:#3f4f3f;fill-opacity:1;fill-rule:nonzero;stroke:none"
         d="m 0,0 -103.359,272.658 13.807,20 L 18.702,7.089 18.701,-49.334 Z" /></g><g
       transform="translate(337.8159,460.8711)"
       id="g15034"><path
         id="path15036"
         style="fill:#ffffff;fill-opacity:1;fill-rule:nonzero;stroke:none"
         d="m 0,0 v 0 l -72.707,-194.394 -0.051,0.135 v -16.609 -39.823 l 0.175,-0.462 18.609,49.754 L 13.873,-20 Z" /></g><g
       transform="translate(451.9375,460.8711)"
       id="g15038"><path
         id="path15040"
         style="fill:#3f4f3f;fill-opacity:1;fill-rule:nonzero;stroke:none"
         d="m 0,0 v 0 l 72.707,-194.394 0.051,0.135 v -16.609 -39.823 l -0.175,-0.462 -18.609,49.754 L -13.873,-20 Z" /></g><g
       transform="translate(337.8159,460.8711)"
       id="g15042"><path
         id="path15044"
         style="fill:#ffffff;fill-opacity:1;fill-rule:nonzero;stroke:none"
         d="m 0,0 13.873,-20 h 86.286 l 13.873,20 z" /></g><g
       transform="translate(208.4419,133.0937)"
       id="g15046"><path
         id="path15048"
         style="fill:#2c382c;fill-opacity:1;fill-rule:nonzero;stroke:none"
         d="m 0,0 14.26,20 h 86.389 L 114.071,0 Z" /></g><g
       transform="translate(711.0615,532.0459)"
       id="g15050"><path
         id="path15052"
         style="fill:#2c382c;fill-opacity:1;fill-rule:nonzero;stroke:none"
         d="m 0,0 28.97,20 -158.679,-418.952 -13.422,20 z" /></g><g
       transform="translate(79.0146,532.0459)"
       id="g15054"><path
         id="path15056"
         style="fill:#3f4f3f;fill-opacity:1;fill-rule:nonzero;stroke:none"
         d="m 0,0 -28.97,20 158.679,-418.952 13.422,20 z" /></g><g
       transform="translate(394.8296,384.7363)"
       id="g15058"><path
         id="path15060"
         style="fill:#2c382c;fill-opacity:1;fill-rule:nonzero;stroke:none"
         d="m 0,0 v -58.259 l -72.327,-193.384 -13.422,20 z" /></g><g
       transform="translate(394.8296,384.7363)"
       id="g15062"><path
         id="path15064"
         style="fill:#3f4f3f;fill-opacity:1;fill-rule:nonzero;stroke:none"
         d="m 0,0 v -58.259 l 72.327,-193.384 13.422,20 z" /></g><g
       transform="translate(467.1562,133.0937)"
       id="g15066"><path
         id="path15068"
         style="fill:#2c382c;fill-opacity:1;fill-rule:nonzero;stroke:none"
         d="m 0,0 14.268,20 h 86.389 L 114.068,0 Z" /></g><g
       transform="translate(632.79,552.0459)"
       id="g15070"><path
         id="path15072"
         style="fill:#ffffff;fill-opacity:1;fill-rule:nonzero;stroke:none"
         d="m 0,0 13.808,-20 h 64.463 l 28.97,20 z" /></g><g
       transform="translate(156.8799,552.0459)"
       id="g15074"><path
         id="path15076"
         style="fill:#ffffff;fill-opacity:1;fill-rule:nonzero;stroke:none"
         d="m 0,0 -13.807,-20 h -64.464 l -28.97,20 z" /></g></g></svg>
