<?xml version="1.0" encoding="UTF-8" standalone="no"?><!DOCTYPE svg PUBLIC "-//W3C//DTD SVG 1.1//EN" "http://www.w3.org/Graphics/SVG/1.1/DTD/svg11.dtd"><svg width="100%" height="100%" viewBox="0 0 5867 5867" version="1.1" xmlns="http://www.w3.org/2000/svg" xmlns:xlink="http://www.w3.org/1999/xlink" xml:space="preserve" xmlns:serif="http://www.serif.com/" style="fill-rule:evenodd;clip-rule:evenodd;stroke-linejoin:round;stroke-miterlimit:2;"><g id="Apex"><g><path d="M-0,3000.95l372.988,330.594c28.249,-75.796 47.528,-172.752 59.31,-292.231l-37.08,-38.363l41.978,-43.432c5.125,-114.088 5.387,-230.419 -2.451,-341.9l-434.745,385.332Z"/><path d="M838.096,2925.65c59.811,-204.864 63.912,-422.622 -47.659,-562.418c-150.295,-142.463 -228.85,-105.483 -241.319,96.8c30.248,845.262 -78.597,1191.95 -308.982,1102.97c200.464,169.626 381.567,44.108 506.411,-921.366c48.96,12.239 79.548,106.586 91.549,284.01Z"/><path d="M1038.49,2685.8l-85.276,315.148l50.841,187.891c45.03,-163.787 52.474,-331.935 34.435,-503.039"/><path d="M733.303,3350.74c-27.617,86.716 -60.261,157.716 -97.774,213.501l154.908,137.3l150.393,-304.502l-30.676,-111.05l-119.717,123.864l-57.134,-59.113Z"/><path d="M-0,1953.98c153.454,-394.621 380.792,-454.297 760.249,-72.553c232.578,260.296 382.616,539.844 402.38,849.78c14.342,438.504 -103.185,836.444 -347.663,1195.33c-141.356,247.402 -118.547,473.157 64.623,677.767c390.058,356.424 633.799,157.786 811.373,-291.865c-226.274,245.28 -458.53,371.193 -710.744,98.951c-63.83,-79.897 -73.224,-204.596 7.053,-403.093c98.856,-160.492 183.831,-330.651 249.115,-514.525c131.615,-319.771 164.934,-646.16 71.362,-981.091c-172.193,-603.677 -465.942,-875.092 -805.673,-1020.82c-329.317,-122.057 -455.123,102.814 -502.075,462.113Z"/><path d="M1223.94,2000.44c54.584,103.311 104.123,217.941 149.583,341.722l114.89,-495.628l267.601,1154.41l-267.601,1154.41l-143.325,-618.296c-45.352,122.92 -96.494,238.008 -153.358,345.355l149.828,553.707c96.03,-44.995 185.116,-112.109 265.748,-206.158l72.548,41.383l290.581,-1073.87l-70.69,-196.532l70.34,-197.826l-481.672,-1780.07l-264.473,977.39Z"/><path d="M2569.4,2576.79l103.711,-318.967l251.322,-168.705l262.685,174.427l101.196,329.529l-363.881,-278.276l-355.033,261.992Z"/><path d="M2569.4,3427.61l103.711,318.967l251.322,168.704l262.685,-174.426l101.196,-329.53l-363.881,278.277l-355.033,-261.992Z"/><path d="M1509.92,2455.17l127.917,545.78l-127.645,541.93c-24.639,-114.345 -44.218,-244.167 -55.462,-399.484c26.269,-149.298 32.508,-301.853 15.539,-458.182l39.651,-230.044Z"/><path d="M1237.01,1094.29c4.937,-268.127 -0.739,-538.771 763.509,-626.763c-23.524,286.226 -128.306,518.253 -279.923,719.041c140.522,79.228 396.697,-22.61 791.018,-340.729c-144.632,72.183 -297.966,118.309 -461.384,134.244l118.129,-420.289c29.703,-238.619 -55.465,-277.713 -164.474,-275.396c-757.674,93.613 -850.164,420.88 -766.875,809.892Z"/><path d="M1805.38,1742.86l85.426,299.063c155.512,-271.232 338.398,-467.894 552.795,-578.722l114.552,-336.8c-292.425,103.582 -543.921,307.666 -752.773,616.459Z"/><path d="M1887.49,3953.82l-82.111,305.219c249.356,361.991 501.531,545.845 752.773,616.459l-114.912,-336.995c-225.142,-121.687 -409.242,-318.693 -555.75,-584.683Z"/><path d="M1871.95,4643.6c-102.516,54.645 -199.685,115.443 -286.124,188.585c-74.558,60.37 -66.85,134.634 -10.199,217.166c110.819,144.863 197.81,305.597 260.407,482.58c16.596,-149.958 -19.6,-339.068 -98.768,-560.048c20.509,-119.824 68.618,-227.881 134.684,-328.283Z"/><path d="M2229.67,5383.73c-21.331,-105.707 -80.805,-211.192 -167.027,-316.521c89.19,-99.029 200.452,-124.283 335.835,-68.919c-86.097,-110.246 -214.52,-159.701 -419.697,-98.914c-102.076,50.989 -119.041,122.171 -45.229,214.889c91.878,109.126 189.063,203.247 296.118,269.465Z"/><path d="M2596.56,5273.5c8.34,-57.84 9.081,-119.638 1.572,-185.73c-16.565,-124.419 -222.123,-49.73 -147.075,61.17c40.497,59.842 96.457,93.664 145.503,124.56Z"/><path d="M2933.33,418.978l-909.717,2581.97l909.717,2581.97l909.717,-2581.97l-909.717,-2581.97Zm0,644.861l-622.249,1937.11l622.249,1937.11l604.442,-1937.11l-604.442,-1937.11Z"/><path d="M5866.67,2998.2l-372.988,330.594c-28.25,-75.795 -47.528,-172.752 -59.31,-292.23l37.079,-38.364l-41.978,-43.432c-5.124,-114.087 -5.387,-230.418 2.452,-341.9l434.745,385.332Z"/><path d="M5028.57,2922.9c-59.811,-204.863 -63.911,-422.622 47.66,-562.417c150.294,-142.463 228.849,-105.483 241.318,96.8c-30.247,845.262 78.597,1191.95 308.983,1102.97c-200.465,169.626 -381.568,44.108 -506.411,-921.366c-48.96,12.239 -79.549,106.586 -91.55,284.009Z"/><path d="M4828.18,2683.06l85.276,315.147l-50.842,187.891c-45.029,-163.787 -52.473,-331.934 -34.434,-503.038"/><path d="M5133.36,3348c27.617,86.715 60.261,157.716 97.773,213.501l-154.907,137.3l-150.393,-304.502l30.676,-111.05l119.717,123.864l57.134,-59.113Z"/><path d="M5866.67,1951.23c-153.454,-394.62 -380.792,-454.297 -760.249,-72.552c-232.578,260.295 -382.616,539.844 -402.38,849.78c-14.342,438.504 103.185,836.444 347.663,1195.33c141.355,247.402 118.547,473.157 -64.623,677.767c-390.059,356.424 -633.8,157.786 -811.373,-291.866c226.273,245.281 458.53,371.193 710.743,98.952c63.831,-79.898 73.224,-204.597 -7.052,-403.094c-98.856,-160.492 -183.831,-330.651 -249.115,-514.524c-131.615,-319.771 -164.934,-646.16 -71.363,-981.092c172.194,-603.677 465.942,-875.091 805.673,-1020.82c329.317,-122.058 455.124,102.814 502.076,462.112Z"/><path d="M4642.73,1997.69c-54.584,103.311 -104.123,217.94 -149.583,341.722l-114.89,-495.628l-267.601,1154.41l267.601,1154.41l143.325,-618.296c45.352,122.92 96.493,238.008 153.358,345.354l-149.829,553.707c-96.029,-44.994 -185.115,-112.109 -265.747,-206.158l-72.549,41.384l-290.581,-1073.87l70.691,-196.532l-70.341,-197.825l481.673,-1780.07l264.473,977.391Z"/><path d="M4356.74,2452.42l-127.917,545.779l127.644,541.931c24.64,-114.345 44.219,-244.168 55.462,-399.484c-26.268,-149.298 -32.507,-301.854 -15.538,-458.182l-39.651,-230.044Z"/><path d="M4629.66,1091.54c-4.937,-268.127 0.739,-538.771 -763.51,-626.762c23.524,286.225 128.306,518.252 279.924,719.04c-140.522,79.229 -396.697,-22.609 -791.019,-340.728c144.633,72.183 297.967,118.309 461.384,134.244l-118.129,-420.289c-29.702,-238.619 55.466,-277.713 164.474,-275.396c757.674,93.613 850.165,420.88 766.876,809.891Z"/><path d="M4061.29,1740.12l-85.427,299.062c-155.511,-271.231 -338.398,-467.893 -552.794,-578.722l-114.553,-336.799c292.425,103.582 543.921,307.665 752.774,616.459Z"/><path d="M3979.18,3951.07l82.112,305.22c-249.356,361.99 -501.532,545.844 -752.774,616.458l114.912,-336.995c225.143,-121.686 409.242,-318.693 555.75,-584.683Z"/><path d="M3994.72,4640.86c102.517,54.645 199.685,115.443 286.125,188.585c74.558,60.369 66.849,134.634 10.198,217.166c-110.819,144.863 -197.809,305.597 -260.406,482.58c-16.596,-149.959 19.6,-339.069 98.767,-560.048c-20.509,-119.825 -68.618,-227.882 -134.684,-328.283Z"/><path d="M3637,5380.98c21.33,-105.707 80.804,-211.192 167.027,-316.522c-89.19,-99.029 -200.453,-124.282 -335.836,-68.918c86.097,-110.247 214.52,-159.701 419.698,-98.914c102.075,50.989 119.041,122.17 45.228,214.889c-91.877,109.126 -189.063,203.246 -296.117,269.465Z"/><path d="M3270.1,5270.75c-8.341,-57.841 -9.081,-119.638 -1.572,-185.731c16.564,-124.418 222.123,-49.729 147.074,61.17c-40.496,59.843 -96.456,93.664 -145.502,124.561Z"/><path d="M2933.33,416.231l909.717,2581.97l-909.717,2581.97l-909.717,-2581.97l909.717,-2581.97Zm0,644.861l622.25,1937.11l-622.25,1937.11l-604.442,-1937.11l604.442,-1937.11Z"/></g></g></svg>