<?xml version="1.0" encoding="UTF-8" standalone="no"?>
<svg
   xmlns:dc="http://purl.org/dc/elements/1.1/"
   xmlns:cc="http://creativecommons.org/ns#"
   xmlns:rdf="http://www.w3.org/1999/02/22-rdf-syntax-ns#"
   xmlns:svg="http://www.w3.org/2000/svg"
   xmlns="http://www.w3.org/2000/svg"
   xmlns:sodipodi="http://sodipodi.sourceforge.net/DTD/sodipodi-0.dtd"
   xmlns:inkscape="http://www.inkscape.org/namespaces/inkscape"
   inkscape:version="1.0 (4035a4fb49, 2020-05-01)"
   sodipodi:docname="NISEI_CRIMINAL.svg"
   viewBox="0 0 1056 1056"
   height="1056"
   width="1056"
   xml:space="preserve"
   id="svg396"
   version="1.1"><metadata
     id="metadata402"><rdf:RDF><cc:Work
         rdf:about=""><dc:format>image/svg+xml</dc:format><dc:type
           rdf:resource="http://purl.org/dc/dcmitype/StillImage" /><dc:title></dc:title></cc:Work></rdf:RDF></metadata><defs
     id="defs400"><clipPath
       id="clipPath412"
       clipPathUnits="userSpaceOnUse"><path
         id="path410"
         d="M 0,792 H 792 V 0 H 0 Z" /></clipPath></defs><sodipodi:namedview
     inkscape:current-layer="g404"
     inkscape:window-maximized="0"
     inkscape:window-y="0"
     inkscape:window-x="0"
     inkscape:cy="528"
     inkscape:cx="528"
     inkscape:zoom="0.81439394"
     showgrid="false"
     id="namedview398"
     inkscape:window-height="480"
     inkscape:window-width="733"
     inkscape:pageshadow="2"
     inkscape:pageopacity="0"
     guidetolerance="10"
     gridtolerance="10"
     objecttolerance="10"
     borderopacity="1"
     bordercolor="#666666"
     pagecolor="#ffffff" /><g
     transform="matrix(1.3333333,0,0,-1.3333333,0,1056)"
     inkscape:label="Criminal Glyph"
     inkscape:groupmode="layer"
     id="g404"><g
       id="g406"><g
         clip-path="url(#clipPath412)"
         id="g408"><g
           transform="translate(203.5469,759.1592)"
           id="g414"><path
             id="path416"
             style="fill:#194c9b;fill-opacity:1;fill-rule:nonzero;stroke:none"
             d="M 0,0 C -54.791,-1.417 -96.186,-57.803 -89.477,-125.284 -74.796,-73.448 -41.612,-33.055 0,0" /></g><g
           transform="translate(189.7065,699.8818)"
           id="g418"><path
             id="path420"
             style="fill:#194c9b;fill-opacity:1;fill-rule:nonzero;stroke:none"
             d="M 0,0 C 26.817,21.963 58.396,37.089 89.889,46.356 102.351,50.401 114.9,53.598 127.5,55.961 74.998,76.376 18.744,40.658 -11.36,-8.803 -7.627,-5.777 -3.841,-2.841 0,0" /></g><g
           transform="translate(332.5776,642.9644)"
           id="g422"><path
             id="path424"
             style="fill:#194c9b;fill-opacity:1;fill-rule:nonzero;stroke:none"
             d="m 0,0 c 89.226,40.948 139.007,49.202 169.155,51.123 3.63,0.289 7.225,0.509 10.775,0.643 4.75,0.178 9.407,0.2 13.991,0.099 -44.084,27.149 -95.004,42.827 -147.511,42.827 -1.206,0 -2.405,-0.03 -3.608,-0.045 -1.202,0.015 -2.401,0.045 -3.607,0.045 -96.919,0 -188.445,-53.383 -241.484,-133.835 C -168.853,-58.073 -96.41,-44.244 0,0" /></g><g
           transform="translate(470.9316,201.6396)"
           id="g426"><path
             id="path428"
             style="fill:#194c9b;fill-opacity:1;fill-rule:nonzero;stroke:none"
             d="m 0,0 c -16.336,20.937 -38.404,46.732 -64.272,60.498 -1.124,0.598 -2.249,1.16 -3.374,1.707 3.369,-7.934 6.797,-15.353 10.192,-22.232 -2.567,-2.322 -11.9,-10.371 -26.371,-14.127 -0.965,7.62 -7.456,13.516 -15.337,13.516 -7.882,0 -14.374,-5.897 -15.338,-13.518 -14.395,3.729 -23.694,11.708 -26.371,14.129 4.034,8.451 8.1,17.637 12.054,27.521 -5.454,-1.537 -10.982,-3.575 -16.6,-6.127 l -16.479,-7.484 6.355,16.947 c 16.393,43.714 23.24,80.983 20.352,110.773 -1.282,13.214 -4.412,24.944 -9.42,35.258 -0.282,-47.869 -39.306,-86.726 -87.239,-86.726 -48.112,0 -87.255,39.138 -87.255,87.247 0,22.936 8.9,43.829 23.42,59.419 -31.203,5.437 -62.082,14.612 -84.393,35.075 -4.986,-20.716 -7.656,-42.278 -7.656,-64.425 0,-50.852 13.192,-98.603 36.298,-140.087 3.839,0.699 7.797,0.698 11.812,1.12 46.025,4.843 79.358,-39.491 69.69,-69.824 -3.324,-10.431 -6.548,-17.266 -11.27,-26.347 3.594,-11.053 8.152,-21.662 13.522,-31.78 2.821,1.19 5.921,1.85 9.181,1.85 13.076,0 23.681,-10.609 23.681,-23.688 0,-6.344 -2.503,-12.086 -6.565,-16.342 3.776,-4.314 7.731,-8.464 11.856,-12.438 4.342,5.351 10.966,8.778 18.396,8.778 13.079,0 23.684,-10.608 23.684,-23.687 0,-5.119 -1.641,-9.848 -4.402,-13.721 4.89,-2.874 9.898,-5.558 15.041,-8.023 3.066,9.526 11.992,16.43 22.546,16.43 13.076,0 23.681,-10.601 23.681,-23.687 0,-2.805 -0.512,-5.477 -1.402,-7.974 5.949,-1.257 5.861,-1.534 11.995,-2.251 0.625,10.735 13.823,21.05 24.436,21.07 11.66,0.021 23.812,-10.335 24.437,-21.07 6.135,0.717 6.047,0.994 11.995,2.251 -0.89,2.497 -1.402,5.169 -1.402,7.974 0,13.086 10.604,23.687 23.68,23.687 10.555,0 19.481,-6.904 22.547,-16.43 5.143,2.465 10.151,5.149 15.041,8.023 -2.762,3.873 -4.402,8.602 -4.402,13.721 0,13.079 10.605,23.687 23.683,23.687 7.43,0 14.055,-3.427 18.397,-8.778 4.125,3.974 8.08,8.124 11.856,12.438 -2.634,2.759 -4.605,6.145 -5.671,9.913 C 30.559,-37.104 16.152,-20.699 0,0 m -158.725,217.39 c 0,4.142 -3.357,7.5 -7.5,7.5 h -8.885 -18.97 c -4.143,0 -7.5,-3.358 -7.5,-7.5 0,-4.142 3.357,-7.5 7.5,-7.5 h 18.971 8.884 c 4.143,0 7.5,3.358 7.5,7.5 m -65.628,-37.773 c 0,4.143 -3.357,7.5 -7.5,7.5 -4.142,0 -7.5,-3.357 -7.5,-7.5 v -18.974 -8.881 c 0,-4.143 3.358,-7.5 7.5,-7.5 4.143,0 7.5,3.357 7.5,7.5 v 8.88 z m -37.772,37.773 c 0,4.142 -3.357,7.5 -7.5,7.5 h -18.97 -8.885 c -4.143,0 -7.5,-3.358 -7.5,-7.5 0,-4.142 3.357,-7.5 7.5,-7.5 h 8.884 18.971 c 4.143,0 7.5,3.358 7.5,7.5 m 95.9,-15 h -10.383 c -5.307,-19.533 -20.713,-34.94 -40.245,-40.248 v -10.38 c 0,-8.271 -6.729,-15 -15,-15 -8.271,0 -15,6.729 -15,15 v 10.382 c -19.531,5.309 -34.937,20.715 -40.244,40.246 h -10.383 c -8.271,0 -15,6.729 -15,15 0,8.271 6.729,15 15,15 h 10.387 c 4.837,17.788 18.051,32.151 35.127,38.583 4.27,-0.41 8.477,-0.786 12.613,-1.176 v -14.635 c 0,-4.143 3.358,-7.5 7.5,-7.5 4.143,0 7.5,3.357 7.5,7.5 v 13.005 c 10.222,-1.339 19.786,-3.24 28.38,-6.647 0.347,-0.138 0.682,-0.283 1.026,-0.423 8.741,-7.393 15.248,-17.35 18.336,-28.707 h 10.386 c 8.271,0 15,-6.729 15,-15 0,-8.271 -6.729,-15 -15,-15" /></g><g
           transform="translate(611.1182,316.8437)"
           id="g430"><path
             id="path432"
             style="fill:#194c9b;fill-opacity:1;fill-rule:nonzero;stroke:none"
             d="m 0,0 c -15.196,0 -27.559,12.362 -27.559,27.557 0,6.204 2.063,11.934 5.537,16.545 l -29.986,29.985 c -0.999,-0.709 -2.015,-1.399 -3.061,-2.055 C -67.44,64.276 -81.723,61.123 -96.155,59.963 V 20.605 l 41.46,-41.459 c 1.406,-1.407 2.196,-3.314 2.196,-5.303 v -8.692 -18.085 c 11.561,-3.275 20.059,-13.915 20.059,-26.509 0,-12.029 -7.751,-22.275 -18.519,-26.026 -1.38,-0.481 -2.811,-0.852 -4.279,-1.111 -0.067,-0.012 -0.132,-0.024 -0.199,-0.035 -0.686,-0.115 -1.381,-0.204 -2.084,-0.268 -0.109,-0.01 -0.22,-0.016 -0.331,-0.025 -0.71,-0.056 -1.424,-0.092 -2.148,-0.092 -15.196,0 -27.559,12.362 -27.559,27.557 0,12.594 8.498,23.235 20.06,26.51 v 23.669 l -41.46,41.459 c -1.406,1.408 -2.196,3.315 -2.196,5.304 v 41.866 c -1.002,-0.006 -2.004,-0.011 -3.001,-0.007 -18.858,0.07 -37.739,2.608 -55.715,8.418 -4.677,1.518 -9.456,3.155 -13.84,5.426 -2.3,1.243 12.188,22.968 13.745,25.177 9.968,14.099 22.852,26.812 38.779,33.263 6.612,2.677 13.296,5.188 20.032,7.543 v 105.782 l 22.003,22.003 c -2.234,3.979 -3.513,8.561 -3.513,13.439 0,15.195 12.362,27.556 27.559,27.556 15.196,0 27.559,-12.361 27.559,-27.556 0,-15.194 -12.363,-27.555 -27.559,-27.555 -4.878,0 -9.46,1.278 -13.439,3.51 l -17.61,-17.61 v -94.635 c 9.473,2.918 19.037,5.483 28.656,7.669 v 22.647 c 0,1.989 0.79,3.897 2.196,5.303 l 40.472,40.473 c -2.218,3.969 -3.487,8.536 -3.487,13.395 0,15.195 12.362,27.557 27.558,27.557 15.197,0 27.56,-12.362 27.56,-27.557 0,-15.194 -12.363,-27.555 -27.56,-27.555 -4.895,0 -9.493,1.288 -13.481,3.535 L -52.499,171.329 V 154.87 c 13.829,2.54 27.736,4.272 41.628,5.039 0.044,0.004 0.083,0.007 0.128,0.008 -0.464,-0.009 -7.024,-33.979 -8.257,-37.47 -4.892,-13.813 -11.816,-27.512 -21.775,-38.378 L -9.952,53.246 c 3.09,1.2 6.443,1.866 9.952,1.866 15.196,0 27.56,-12.361 27.56,-27.555 C 27.56,12.362 15.196,0 0,0 m 27.559,293.376 v 0 c -30.231,45.881 -73.167,66.864 -131.266,64.152 -58.323,-2.724 -122.952,-29.604 -166.492,-49.585 -50.756,-23.293 -95.254,-38.549 -132.257,-45.346 -46.739,-8.583 -80.588,-3.153 -100.605,16.144 -14.399,13.882 -21.215,34.475 -20.256,61.208 0.421,11.741 2.367,24.863 5.817,39.285 -6.308,-10.783 -11.588,-21.414 -15.814,-31.849 -10.474,-25.864 -14.253,-49.981 -11.232,-71.682 4.009,-28.805 19.827,-52.594 47.016,-70.708 18.929,-12.613 56.504,-18.759 92.842,-24.703 38.313,-6.268 77.931,-12.748 101.161,-27.594 31.628,-20.213 49.425,-49.904 52.897,-88.248 2.212,-24.429 -1.311,-52.316 -10.756,-84.85 5.692,0.901 11.199,1.328 16.54,1.328 52.819,0 89.102,-41.753 121.767,-79.339 6.466,-7.44 13.152,-15.133 19.723,-22.222 16.741,-18.058 32.393,-26.354 46.502,-24.655 26.012,3.131 49.447,39.639 66.957,71.095 31.671,56.896 52.065,122.375 57.422,184.374 6.125,70.872 -7.695,134.22 -39.966,183.195" /></g><g
           transform="translate(551.1182,249.9561)"
           id="g434"><path
             id="path436"
             style="fill:#194c9b;fill-opacity:1;fill-rule:nonzero;stroke:none"
             d="m 0,0 c -2.843,0 -5.46,-0.961 -7.567,-2.559 -0.035,-0.026 -0.07,-0.051 -0.105,-0.078 -0.228,-0.177 -0.449,-0.362 -0.665,-0.554 -0.06,-0.054 -0.12,-0.109 -0.18,-0.164 -0.198,-0.184 -0.391,-0.372 -0.578,-0.567 -0.067,-0.071 -0.132,-0.145 -0.198,-0.218 -0.175,-0.193 -0.349,-0.387 -0.512,-0.591 -0.062,-0.078 -0.119,-0.161 -0.179,-0.24 -0.271,-0.355 -0.523,-0.725 -0.755,-1.109 -0.082,-0.136 -0.17,-0.269 -0.248,-0.407 -0.086,-0.157 -0.161,-0.319 -0.242,-0.479 -0.091,-0.181 -0.183,-0.363 -0.265,-0.551 -0.069,-0.156 -0.13,-0.315 -0.193,-0.474 -0.079,-0.201 -0.155,-0.404 -0.223,-0.609 -0.052,-0.156 -0.101,-0.313 -0.147,-0.471 -0.063,-0.222 -0.121,-0.447 -0.172,-0.673 -0.036,-0.151 -0.071,-0.3 -0.1,-0.452 -0.049,-0.255 -0.085,-0.515 -0.118,-0.775 -0.017,-0.13 -0.038,-0.258 -0.051,-0.389 -0.037,-0.394 -0.061,-0.792 -0.061,-1.196 0,-6.923 5.634,-12.556 12.559,-12.556 0.394,0 0.782,0.022 1.167,0.059 0.224,0.021 0.441,0.057 0.661,0.089 0.142,0.022 0.283,0.039 0.423,0.065 0.293,0.053 0.579,0.121 0.863,0.194 0.049,0.013 0.099,0.024 0.147,0.037 5.347,1.441 9.299,6.317 9.299,12.112 C 12.56,-5.633 6.926,0 0,0" /></g><g
           transform="translate(558.5713,597.2529)"
           id="g438"><path
             id="path440"
             style="fill:#194c9b;fill-opacity:1;fill-rule:nonzero;stroke:none"
             d="m 0,0 c 0,6.923 -5.634,12.556 -12.56,12.556 -6.924,0 -12.558,-5.633 -12.558,-12.556 0,-6.923 5.634,-12.556 12.558,-12.556 C -5.634,-12.556 0,-6.923 0,0" /></g><g
           transform="translate(611.1182,356.9561)"
           id="g442"><path
             id="path444"
             style="fill:#194c9b;fill-opacity:1;fill-rule:nonzero;stroke:none"
             d="m 0,0 c -6.925,0 -12.559,-5.633 -12.559,-12.556 0,-6.923 5.634,-12.556 12.559,-12.556 6.926,0 12.56,5.633 12.56,12.556 C 12.56,-5.633 6.926,0 0,0" /></g><g
           transform="translate(610.3584,537.8945)"
           id="g446"><path
             id="path448"
             style="fill:#194c9b;fill-opacity:1;fill-rule:nonzero;stroke:none"
             d="m 0,0 c 6.926,0 12.56,5.632 12.56,12.556 0,6.923 -5.634,12.556 -12.56,12.556 -6.925,0 -12.559,-5.633 -12.559,-12.556 C -12.559,5.632 -6.925,0 0,0" /></g></g></g></g></svg>
