<?xml version="1.0" encoding="UTF-8" standalone="no"?>
<svg
   xmlns:dc="http://purl.org/dc/elements/1.1/"
   xmlns:cc="http://creativecommons.org/ns#"
   xmlns:rdf="http://www.w3.org/1999/02/22-rdf-syntax-ns#"
   xmlns:svg="http://www.w3.org/2000/svg"
   xmlns="http://www.w3.org/2000/svg"
   xmlns:sodipodi="http://sodipodi.sourceforge.net/DTD/sodipodi-0.dtd"
   xmlns:inkscape="http://www.inkscape.org/namespaces/inkscape"
   inkscape:version="1.0 (4035a4fb49, 2020-05-01)"
   sodipodi:docname="NISEI_SHAPER.svg"
   viewBox="0 0 1056 1056"
   height="1056"
   width="1056"
   xml:space="preserve"
   id="svg14842"
   version="1.1"><metadata
     id="metadata14848"><rdf:RDF><cc:Work
         rdf:about=""><dc:format>image/svg+xml</dc:format><dc:type
           rdf:resource="http://purl.org/dc/dcmitype/StillImage" /><dc:title></dc:title></cc:Work></rdf:RDF></metadata><defs
     id="defs14846"><clipPath
       id="clipPath14858"
       clipPathUnits="userSpaceOnUse"><path
         id="path14856"
         d="M 0,792 H 792 V 0 H 0 Z" /></clipPath></defs><sodipodi:namedview
     inkscape:current-layer="g14850"
     inkscape:window-maximized="0"
     inkscape:window-y="0"
     inkscape:window-x="0"
     inkscape:cy="528"
     inkscape:cx="528"
     inkscape:zoom="0.81439394"
     showgrid="false"
     id="namedview14844"
     inkscape:window-height="480"
     inkscape:window-width="728"
     inkscape:pageshadow="2"
     inkscape:pageopacity="0"
     guidetolerance="10"
     gridtolerance="10"
     objecttolerance="10"
     borderopacity="1"
     bordercolor="#666666"
     pagecolor="#ffffff" /><g
     transform="matrix(1.3333333,0,0,-1.3333333,0,1056)"
     inkscape:label="Shaper Glyph"
     inkscape:groupmode="layer"
     id="g14850"><g
       id="g14852"><g
         clip-path="url(#clipPath14858)"
         id="g14854"><g
           transform="translate(550.9863,236.2646)"
           id="g14860"><path
             id="path14862"
             style="fill:#4cb148;fill-opacity:1;fill-rule:nonzero;stroke:none"
             d="M 0,0 4.945,4.944 24.44,24.439 71.237,71.236 171.71,171.709 101.378,242.04 97.441,238.104 83.3,223.961 69.157,238.104 44.945,262.316 39.223,256.594 38.692,256.063 33.104,250.474 57.315,226.262 71.458,212.12 57.315,197.978 54.626,195.288 99.241,152.659 -33.178,16.703 c 3.825,-2.202 7.634,-4.319 11.431,-6.343 C -14.033,6.247 -6.868,2.719 0,0" /></g><g
           transform="translate(387.9824,119.6738)"
           id="g14864"><path
             id="path14866"
             style="fill:#4cb148;fill-opacity:1;fill-rule:nonzero;stroke:none"
             d="M 0,0 -65.193,67.536 V 33.892 15.542 l 63.574,-63.574 95.12,95.119 C 83.666,53.679 74.247,60.381 65.279,67.023 Z" /></g><g
           transform="translate(175.4336,339.8613)"
           id="g14868"><path
             id="path14870"
             style="fill:#4cb148;fill-opacity:1;fill-rule:nonzero;stroke:none"
             d="m 0,0 -47.361,49.063 62.507,60.26 c -13.648,17.989 -27.53,37.46 -40.812,58.526 L -125.402,68.112 -57.29,0 h 18.35 z" /></g><g
           transform="translate(220.8052,177.2266)"
           id="g14872"><path
             id="path14874"
             style="fill:#4cb148;fill-opacity:1;fill-rule:nonzero;stroke:none"
             d="m 0,0 h -59.487 v 59.486 59.695 h 59.42 L -59.487,59.486 0,0 58.53,60.002 V 0 Z M 30.246,60.002 0,28.284 -31.203,59.486 -0.067,90.896 Z M -0.067,119.181 H 58.53 V 60.002 Z m 73.536,31.521 -8.068,-8.067 H -84.312 v -13.355 0 -138.352 0 -14.589 h 6.225 4.144 10.369 10e-4 145.557 v 149.71 l 7.862,7.862 c -5.505,5.541 -10.958,11.146 -16.377,16.791" /></g><g
           transform="translate(435.6387,497.5786)"
           id="g14876"><path
             id="path14878"
             style="fill:#4cb148;fill-opacity:1;fill-rule:nonzero;stroke:none"
             d="M 0,0 C -15.317,15.227 -30.869,30.13 -46.582,44.742 -59.066,56.351 -71.969,67.366 -85.085,78.04 l -8.244,-7.946 c 5.583,-4.425 11.093,-8.983 16.524,-13.683 23.685,-20.497 47.302,-41.254 70.1,-63.116 z" /></g><g
           transform="translate(569.0352,344.8359)"
           id="g14880"><path
             id="path14882"
             style="fill:#4cb148;fill-opacity:1;fill-rule:nonzero;stroke:none"
             d="m 0,0 c -26.562,34.543 -53.925,68.45 -82.883,100.162 -2.126,2.328 -4.277,4.628 -6.417,6.939 l -6.384,-6.383 c 33.017,-35.731 63.773,-74.07 90.261,-116.89 l 9.952,10.22 C 3.026,-3.962 1.52,-1.975 0,0" /></g><g
           transform="translate(641.7295,223.2861)"
           id="g14884"><path
             id="path14886"
             style="fill:#4cb148;fill-opacity:1;fill-rule:nonzero;stroke:none"
             d="M 0,0 C -7.279,17.636 -15.667,34.432 -24.868,50.569 L -43.03,32.406 c 0.925,-3.639 1.72,-7.346 2.335,-11.151 3.801,-23.545 -5.562,-36.475 -25.996,-35.523 -14.108,0.657 -27.383,5.091 -40.287,11.012 -1.293,0.593 -2.583,1.202 -3.87,1.822 -0.029,0.015 -0.058,0.029 -0.089,0.043 -1.225,0.592 -2.447,1.196 -3.667,1.808 -0.1,0.051 -0.201,0.101 -0.301,0.15 -1.134,0.572 -2.265,1.152 -3.394,1.737 -0.165,0.086 -0.331,0.17 -0.495,0.256 -1.245,0.646 -2.487,1.301 -3.727,1.962 -2.816,1.501 -5.613,3.037 -8.394,4.605 -0.07,0.039 -0.141,0.081 -0.211,0.121 -2.722,1.536 -5.43,3.101 -8.122,4.695 -36.481,21.597 -70.23,48.538 -102.829,77.612 -14.979,13.357 -29.642,27.127 -43.971,41.326 v 0.001 c -2.738,2.712 -5.461,5.441 -8.173,8.186 -0.067,0.069 -0.135,0.137 -0.202,0.205 -2.714,2.75 -5.416,5.516 -8.104,8.298 -29.182,30.212 -56.82,62.409 -82.518,97.062 -6.203,8.363 -12.309,16.816 -18.216,25.433 -1.586,2.314 -3.155,4.642 -4.709,6.982 -0.235,0.353 -0.469,0.707 -0.703,1.061 -2.354,3.563 -4.667,7.16 -6.933,10.795 -0.191,0.306 -0.381,0.615 -0.572,0.922 -3.901,6.295 -7.658,12.706 -11.228,19.267 -0.048,0.089 -0.096,0.177 -0.144,0.264 -2.183,4.022 -4.297,8.1 -6.332,12.24 -0.035,0.072 -0.071,0.146 -0.107,0.218 -2.044,4.167 -4.008,8.396 -5.882,12.698 -1.669,3.83 -3.284,7.702 -4.804,11.65 -3.13,8.134 -5.512,16.821 -7.192,25.519 -4.322,22.38 4.446,35.265 27.586,35.876 7.641,-0.154 15.758,-2.096 24.092,-5.078 l 16.179,16.18 c -19.85,12.343 -40.34,23.203 -61.733,31.863 -16.469,6.666 -33.22,11.866 -50.771,10.968 -22.305,-1.142 -33.245,-16.213 -31.133,-42.491 0.12,-1.488 0.302,-2.973 0.494,-4.452 2.731,-21.087 10.267,-40.106 18.956,-58.567 10.504,-22.318 22.398,-43.399 35.241,-63.625 0.602,-0.948 1.201,-1.898 1.807,-2.843 1.164,-1.812 2.337,-3.616 3.516,-5.414 0.605,-0.923 1.211,-1.844 1.82,-2.764 1.226,-1.854 2.458,-3.704 3.7,-5.544 0.463,-0.685 0.929,-1.366 1.394,-2.049 6.292,-9.258 12.767,-18.35 19.387,-27.309 0.19,-0.257 0.379,-0.514 0.569,-0.77 9.61,-12.976 19.506,-25.69 29.584,-38.231 27.296,-33.969 55.855,-66.22 85.619,-96.806 1.925,-1.982 3.859,-3.95 5.794,-5.918 33.975,-34.48 69.507,-66.81 106.579,-96.973 14.358,-11.681 28.89,-23.014 43.697,-33.765 1.152,-0.836 2.302,-1.678 3.457,-2.506 1.857,-1.333 3.722,-2.648 5.589,-3.96 0.515,-0.361 1.028,-0.728 1.544,-1.087 2.173,-1.521 4.357,-3.023 6.545,-4.516 0.154,-0.104 0.307,-0.211 0.461,-0.315 2.338,-1.591 4.684,-3.165 7.038,-4.721 v -0.001 c 21.098,-13.954 42.856,-26.494 65.597,-36.877 19.246,-8.786 38.821,-16.15 54.919,-16.205 30.902,0.639 43.248,16.787 38.26,47.124 C 11.265,-30.945 6.147,-14.893 0,0" /></g><g
           transform="translate(245.6924,603.6343)"
           id="g14888"><path
             id="path14890"
             style="fill:#4cb148;fill-opacity:1;fill-rule:nonzero;stroke:none"
             d="m 0,0 v 0 l -27.532,-27.532 c 9.484,-23.743 22.199,-45.491 35.88,-65.738 L 26.382,-75.884 142.29,35.859 239.233,-56.769 288.673,-7.33 140.671,140.671 44.949,44.949 Z" /></g><g
           transform="translate(401.2187,434.874)"
           id="g14892"><path
             id="path14894"
             style="fill:#4cb148;fill-opacity:1;fill-rule:nonzero;stroke:none"
             d="m 0,0 -46.957,-46.957 c 5.396,-5.587 10.896,-11.146 16.487,-16.682 l 48.12,48.12 8.742,8.742 32.033,32.033 6.397,6.397 14.233,14.233 50.076,-50.076 20.256,20.254 23.053,-23.054 17.49,17.489 3.011,3.011 -38.354,38.355 19.73,19.731 0.265,0.264 0.265,0.265 6.622,6.622 13.244,13.244 38.354,-38.354 20.5,20.5 -23.054,23.054 20.3,20.301 -50.077,50.076 19.146,19.145 -16.584,16.584 L 8.741,8.741 Z" /></g></g></g></g></svg>
