<?xml version="1.0" encoding="UTF-8" standalone="no"?>
<svg
   xmlns:dc="http://purl.org/dc/elements/1.1/"
   xmlns:cc="http://creativecommons.org/ns#"
   xmlns:rdf="http://www.w3.org/1999/02/22-rdf-syntax-ns#"
   xmlns:svg="http://www.w3.org/2000/svg"
   xmlns="http://www.w3.org/2000/svg"
   xmlns:sodipodi="http://sodipodi.sourceforge.net/DTD/sodipodi-0.dtd"
   xmlns:inkscape="http://www.inkscape.org/namespaces/inkscape"
   inkscape:version="1.0 (4035a4fb49, 2020-05-01)"
   sodipodi:docname="NISEI_SUNNY.svg"
   viewBox="0 0 1056 1056"
   height="1056"
   width="1056"
   xml:space="preserve"
   id="svg14896"
   version="1.1"><metadata
     id="metadata14902"><rdf:RDF><cc:Work
         rdf:about=""><dc:format>image/svg+xml</dc:format><dc:type
           rdf:resource="http://purl.org/dc/dcmitype/StillImage" /><dc:title></dc:title></cc:Work></rdf:RDF></metadata><defs
     id="defs14900"><clipPath
       id="clipPath14912"
       clipPathUnits="userSpaceOnUse"><path
         id="path14910"
         d="M 0,792 H 792 V 0 H 0 Z" /></clipPath></defs><sodipodi:namedview
     inkscape:current-layer="g14904"
     inkscape:window-maximized="0"
     inkscape:window-y="0"
     inkscape:window-x="0"
     inkscape:cy="528"
     inkscape:cx="528"
     inkscape:zoom="0.81439394"
     showgrid="false"
     id="namedview14898"
     inkscape:window-height="480"
     inkscape:window-width="726"
     inkscape:pageshadow="2"
     inkscape:pageopacity="0"
     guidetolerance="10"
     gridtolerance="10"
     objecttolerance="10"
     borderopacity="1"
     bordercolor="#666666"
     pagecolor="#ffffff" /><g
     transform="matrix(1.3333333,0,0,-1.3333333,0,1056)"
     inkscape:label="Sunny Glyph"
     inkscape:groupmode="layer"
     id="g14904"><g
       id="g14906"><g
         clip-path="url(#clipPath14912)"
         id="g14908"><g
           transform="translate(224.0933,688.1621)"
           id="g14914"><path
             id="path14916"
             style="fill:#939598;fill-opacity:1;fill-rule:nonzero;stroke:none"
             d="m 0,0 c 35.655,15.263 77.602,23.002 124.674,23.002 25.206,0 52.456,-2.224 80.993,-6.611 33.271,-5.115 58.24,-7.396 80.961,-7.396 31.664,0 60.07,4.687 89.344,15.119 C 320.15,35.986 252.724,45.261 176.184,45.641 63.337,46.202 -30.235,27.241 -96.503,8.501 V -78.657 C -72.24,-43.484 -39.83,-17.05 0,0 m 435.608,-131.975 c -11.277,-20.55 -24.654,-37.877 -40.031,-51.968 -6.571,-25.407 -16.811,-49.377 -30.215,-70.241 -13.05,-20.314 -28.781,-37.226 -46.755,-50.269 -1.271,-0.922 -2.56,-1.806 -3.851,-2.687 -2.405,-16.653 -5.992,-34.404 -11.639,-51.653 -13.598,-41.538 -36.163,-70.585 -67.07,-86.336 -10.602,-5.403 -22.628,-8.029 -36.76,-8.029 -12.096,0 -24.37,1.924 -36.24,3.786 -11.083,1.737 -22.543,3.535 -32.71,3.535 -17.171,0 -27.005,-4.984 -36.282,-18.389 -9.4,-13.582 -11.909,-28.01 -7.897,-45.408 4.77,-20.682 18.441,-43.817 39.533,-66.902 18.952,-20.742 39.498,-36.581 60.376,-51.234 l 26.063,-16.506 c 106.428,55.09 215.49,137.293 226.316,242.823 0.281,2.737 0.499,5.488 0.652,8.254 v 267.832 c -1.135,-2.22 -2.293,-4.426 -3.49,-6.608 m -71.768,4.621 c -34.207,-23.022 -72.632,-29.916 -112.467,-29.916 -59.399,0 -121.972,15.318 -178.497,15.318 -61.267,0 -115.414,-17.982 -150.754,-92.965 -7.723,-16.387 -12.344,-33.014 -14.718,-49.356 6.07,6.899 12.735,13.404 19.99,19.466 33.215,27.752 76.824,44.705 122.795,47.738 5.564,0.367 11.277,0.553 16.98,0.553 31.124,0 58.864,-5.338 85.69,-10.499 23.663,-4.553 46.014,-8.854 68.382,-8.854 15.98,0 30.918,2.234 45.667,6.83 l 56.325,17.553 -2.825,-36.575 c 27.079,32.864 41.544,78.318 43.432,120.707 M 130.337,-405.837 c 24.943,0 49.741,-7.322 68.95,-7.322 7.042,0 13.325,0.982 18.598,3.67 48.225,24.576 57.38,96.379 60.924,142.262 -20.224,-6.302 -39.24,-8.642 -57.568,-8.642 -52.734,0 -99.831,19.353 -154.072,19.353 -4.726,0 -9.505,-0.147 -14.348,-0.466 -74.061,-4.886 -142.961,-54.045 -147.174,-131.375 -0.541,-9.937 -0.185,-19.662 0.974,-29.17 C -65.01,-530.9 49.229,-603.89 148.275,-653.833 78.373,-614.544 5.066,-522.516 61.164,-441.462 c 19.701,28.467 44.511,35.625 69.173,35.625 m 274.57,301.519 2.426,54.452 -65.827,-44.304 c -23.417,-15.76 -52.056,-23.1 -90.133,-23.1 -27.536,0 -57.462,3.804 -86.403,7.482 -30.309,3.852 -61.65,7.836 -92.094,7.836 -41.261,0 -75.328,-7.585 -104.146,-23.189 -17.248,-9.34 -32.892,-21.743 -46.496,-36.864 -5.829,-6.479 -11.359,-13.557 -16.571,-21.179 3.735,25.62 11.098,50.458 25.23,73.354 43.848,71.044 117.821,92.832 193.781,92.832 25.09,0 50.41,-2.379 74.914,-6.147 31.506,-4.843 59.875,-7.86 87.04,-7.86 50.836,0 97.451,10.567 152.47,39.506 V 8.5 c -7.757,-37.618 -17.107,-78.237 -34.191,-112.818" /></g></g></g></g></svg>
