<?xml version="1.0" encoding="UTF-8" standalone="no"?>
<svg
   xmlns:dc="http://purl.org/dc/elements/1.1/"
   xmlns:cc="http://creativecommons.org/ns#"
   xmlns:rdf="http://www.w3.org/1999/02/22-rdf-syntax-ns#"
   xmlns:svg="http://www.w3.org/2000/svg"
   xmlns="http://www.w3.org/2000/svg"
   xmlns:sodipodi="http://sodipodi.sourceforge.net/DTD/sodipodi-0.dtd"
   xmlns:inkscape="http://www.inkscape.org/namespaces/inkscape"
   inkscape:version="1.0 (4035a4fb49, 2020-05-01)"
   sodipodi:docname="NISEI_NBN.svg"
   viewBox="0 0 1056 1056"
   height="1056"
   width="1056"
   xml:space="preserve"
   id="svg14744"
   version="1.1"><metadata
     id="metadata14750"><rdf:RDF><cc:Work
         rdf:about=""><dc:format>image/svg+xml</dc:format><dc:type
           rdf:resource="http://purl.org/dc/dcmitype/StillImage" /><dc:title></dc:title></cc:Work></rdf:RDF></metadata><defs
     id="defs14748"><clipPath
       id="clipPath14760"
       clipPathUnits="userSpaceOnUse"><path
         id="path14758"
         d="M 0,792 H 792 V 0 H 0 Z" /></clipPath></defs><sodipodi:namedview
     inkscape:current-layer="g14752"
     inkscape:window-maximized="0"
     inkscape:window-y="0"
     inkscape:window-x="0"
     inkscape:cy="528"
     inkscape:cx="528"
     inkscape:zoom="0.81439394"
     showgrid="false"
     id="namedview14746"
     inkscape:window-height="480"
     inkscape:window-width="718"
     inkscape:pageshadow="2"
     inkscape:pageopacity="0"
     guidetolerance="10"
     gridtolerance="10"
     objecttolerance="10"
     borderopacity="1"
     bordercolor="#666666"
     pagecolor="#ffffff" /><g
     transform="matrix(1.3333333,0,0,-1.3333333,0,1056)"
     inkscape:label="NBN Glyph"
     inkscape:groupmode="layer"
     id="g14752"><g
       id="g14754"><g
         clip-path="url(#clipPath14760)"
         id="g14756"><g
           transform="translate(258.7798,325.4141)"
           id="g14762"><path
             id="path14764"
             style="fill:#a7a9ac;fill-opacity:1;fill-rule:nonzero;stroke:none"
             d="m 0,0 c -8.946,19.581 -13.666,41.024 -13.666,63.195 0,40.647 15.829,78.861 44.57,107.602 13.363,13.363 28.776,23.931 45.527,31.417 l 8.974,23.743 C 16.866,203.611 -32.666,139.193 -32.666,63.195 c 0,-31.734 8.646,-61.445 23.697,-86.924 z" /></g><g
           transform="translate(539.3428,443.3838)"
           id="g14766"><path
             id="path14768"
             style="fill:#a7a9ac;fill-opacity:1;fill-rule:nonzero;stroke:none"
             d="m 0,0 c 6.642,-17.243 10.113,-35.742 10.113,-54.774 0,-40.646 -15.829,-78.86 -44.57,-107.601 -11.058,-11.059 -23.522,-20.196 -36.984,-27.266 l -9.43,-25.031 c 64.313,24.626 109.984,86.924 109.984,159.898 0,28.807 -7.127,55.946 -19.697,79.767 z" /></g><g
           transform="translate(231.3384,252.8115)"
           id="g14770"><path
             id="path14772"
             style="fill:#a7a9ac;fill-opacity:1;fill-rule:nonzero;stroke:none"
             d="m 0,0 c -12.999,15.841 -23.603,33.374 -31.626,52.344 -11.176,26.422 -16.843,54.5 -16.843,83.454 0,28.954 5.667,57.033 16.843,83.454 10.798,25.531 26.26,48.463 45.958,68.161 19.698,19.697 42.63,35.16 68.16,45.958 15.741,6.658 32.073,11.344 48.825,14.058 l 7.643,20.222 C 22.763,354.271 -67.469,255.581 -67.469,135.798 c 0,-59.986 22.637,-114.68 59.823,-156.026 z" /></g><g
           transform="translate(567.7246,518.7231)"
           id="g14774"><path
             id="path14776"
             style="fill:#a7a9ac;fill-opacity:1;fill-rule:nonzero;stroke:none"
             d="m 0,0 c 10.963,-14.321 20.057,-29.928 27.133,-46.659 11.176,-26.422 16.843,-54.5 16.843,-83.455 0,-28.954 -5.667,-57.032 -16.843,-83.454 -10.798,-25.53 -26.261,-48.462 -45.958,-68.16 -19.698,-19.697 -42.63,-35.16 -68.16,-45.958 -13.359,-5.65 -27.142,-9.887 -41.245,-12.7 l -7.763,-20.607 c 112.576,16.654 198.969,113.672 198.969,230.879 0,57.461 -20.777,110.062 -55.209,150.73 z" /></g><g
           transform="translate(193.6938,153.2148)"
           id="g14778"><path
             id="path14780"
             style="fill:#a7a9ac;fill-opacity:1;fill-rule:nonzero;stroke:none"
             d="m 0,0 14.452,38.237 c -1.362,1.308 -2.718,2.623 -4.057,3.962 -25.104,25.105 -44.81,54.327 -58.569,86.858 -14.237,33.66 -21.455,69.437 -21.455,106.338 0,36.901 7.218,72.678 21.455,106.338 13.759,32.53 33.465,61.753 58.569,86.858 25.105,25.104 54.328,44.809 86.858,58.569 30.167,12.759 62.039,19.862 94.892,21.203 l 14.443,38.214 c -1,0.009 -1.995,0.038 -2.997,0.038 -171.882,0 -311.22,-139.338 -311.22,-311.22 C -107.629,141.359 -65.923,57.065 0,0" /></g><g
           transform="translate(605.7568,619.6772)"
           id="g14782"><path
             id="path14784"
             style="fill:#a7a9ac;fill-opacity:1;fill-rule:nonzero;stroke:none"
             d="m 0,0 -14.548,-38.617 c 24.753,-24.939 44.216,-53.901 57.841,-86.112 14.236,-33.66 21.455,-69.437 21.455,-106.339 0,-36.9 -7.219,-72.678 -21.455,-106.338 -13.76,-32.53 -33.465,-61.753 -58.569,-86.857 -25.105,-25.105 -54.328,-44.81 -86.858,-58.57 -27.93,-11.813 -57.321,-18.777 -87.6,-20.811 l -14.537,-38.59 c 169.943,2.251 307.019,140.689 307.019,311.166 C 102.748,-139.377 63.09,-56.957 0,0" /></g><g
           transform="translate(251.4897,322.0869)"
           id="g14786"><path
             id="path14788"
             style="fill:#ffde00;fill-opacity:1;fill-rule:nonzero;stroke:none"
             d="m 0,0 c -9.417,20.611 -14.385,43.183 -14.385,66.521 0,42.786 16.662,83.011 46.916,113.265 14.066,14.067 30.29,25.19 47.923,33.071 L 89.9,237.849 C 17.754,214.327 -34.385,146.519 -34.385,66.521 c 0,-33.405 9.102,-64.68 24.944,-91.5 z" /></g><g
           transform="translate(546.8193,446.2656)"
           id="g14790"><path
             id="path14792"
             style="fill:#ffde00;fill-opacity:1;fill-rule:nonzero;stroke:none"
             d="m 0,0 c 6.991,-18.151 10.646,-37.623 10.646,-57.657 0,-42.786 -16.663,-83.011 -46.917,-113.265 -11.639,-11.64 -24.76,-21.259 -38.93,-28.7 l -9.927,-26.349 c 67.699,25.922 115.774,91.498 115.774,168.314 0,30.323 -7.502,58.89 -20.735,83.965 z" /></g><g
           transform="translate(222.6045,245.6631)"
           id="g14794"><path
             id="path14796"
             style="fill:#ffde00;fill-opacity:1;fill-rule:nonzero;stroke:none"
             d="m 0,0 c -13.683,16.675 -24.845,35.13 -33.292,55.099 -11.763,27.812 -17.728,57.368 -17.728,87.846 0,30.478 5.965,60.034 17.728,87.847 11.367,26.874 27.644,51.013 48.378,71.747 20.735,20.734 44.874,37.011 71.748,48.378 16.569,7.008 33.761,11.941 51.395,14.798 l 8.045,21.286 C 23.961,372.917 -71.02,269.032 -71.02,142.945 c 0,-63.143 23.829,-120.716 62.972,-164.237 z" /></g><g
           transform="translate(576.6953,525.5698)"
           id="g14798"><path
             id="path14800"
             style="fill:#ffde00;fill-opacity:1;fill-rule:nonzero;stroke:none"
             d="m 0,0 c 11.54,-15.074 21.111,-31.503 28.561,-49.115 11.764,-27.813 17.728,-57.368 17.728,-87.846 0,-30.479 -5.964,-60.035 -17.728,-87.847 -11.367,-26.874 -27.643,-51.013 -48.377,-71.747 -20.735,-20.735 -44.874,-37.011 -71.748,-48.378 -14.061,-5.947 -28.57,-10.407 -43.415,-13.368 l -8.172,-21.692 c 118.502,17.531 209.44,119.656 209.44,243.032 0,60.484 -21.868,115.853 -58.113,158.662 z" /></g><g
           transform="translate(182.9785,140.8242)"
           id="g14802"><path
             id="path14804"
             style="fill:#ffde00;fill-opacity:1;fill-rule:nonzero;stroke:none"
             d="m 0,0 15.213,40.25 c -1.434,1.376 -2.861,2.761 -4.271,4.17 -26.425,26.426 -47.168,57.187 -61.651,91.43 -14.986,35.43 -22.585,73.09 -22.585,111.934 0,38.843 7.599,76.504 22.585,111.935 14.483,34.242 35.226,65.004 61.651,91.429 26.426,26.426 57.187,47.168 91.43,61.652 31.754,13.43 65.303,20.908 99.886,22.319 l 15.204,40.225 c -1.053,0.01 -2.101,0.04 -3.155,0.04 -180.929,0 -327.601,-146.671 -327.601,-327.6 C -113.294,148.8 -69.393,60.069 0,0" /></g><g
           transform="translate(616.7285,631.8374)"
           id="g14806"><path
             id="path14808"
             style="fill:#ffde00;fill-opacity:1;fill-rule:nonzero;stroke:none"
             d="m 0,0 -15.313,-40.65 c 26.055,-26.25 46.543,-56.738 60.884,-90.644 14.987,-35.432 22.585,-73.092 22.585,-111.935 0,-38.844 -7.598,-76.504 -22.585,-111.935 -14.483,-34.242 -35.225,-65.003 -61.651,-91.429 -26.426,-26.425 -57.187,-47.168 -91.429,-61.652 -29.4,-12.434 -60.339,-19.765 -92.211,-21.907 l -15.302,-40.621 c 178.887,2.369 323.178,148.094 323.178,327.544 C 108.156,-146.713 66.411,-59.954 0,0" /></g><g
           transform="translate(427.5674,456.3223)"
           id="g14810"><path
             id="path14812"
             style="fill:#a7a9ac;fill-opacity:1;fill-rule:nonzero;stroke:none"
             d="m 0,0 c -12.594,0.062 -25.187,0.039 -37.781,0.042 l 2.009,13.188 c 5.347,0 10.651,-0.012 15.954,-0.058 1.812,-0.016 2.578,0.586 3.191,2.242 5.466,14.769 11.021,29.504 16.556,44.247 2.87,7.645 5.754,15.284 8.837,23.47 0.545,-1.33 0.887,-2.15 1.216,-2.976 C 18.562,58.589 27.155,37.028 35.68,15.44 L 26.467,-3.832 C 17.91,-0.856 8.993,-0.044 0,0 m 2.843,-47.765 c -4.132,-3.517 -9.208,-4.765 -14.397,-4.905 -9.776,-0.264 -19.565,-0.076 -29.816,-0.076 2.788,7.603 5.433,14.896 8.181,22.151 0.211,0.558 1.148,1.204 1.743,1.198 9.688,-0.092 19.375,-0.283 29.062,-0.452 0.09,-0.002 0.182,-0.007 0.271,-0.024 3.939,-0.752 7.947,-1.809 9.059,-6.221 1.152,-4.562 -0.499,-8.602 -4.103,-11.671 m -16.084,-49.957 c -4.205,-3.371 -9.197,-4.9 -14.395,-5.033 -10.785,-0.274 -21.583,-0.083 -32.775,-0.083 3.011,7.959 5.863,15.575 8.817,23.153 0.219,0.56 1.173,1.194 1.78,1.189 10.429,-0.084 20.856,-0.263 31.285,-0.422 0.09,-10e-4 0.182,-0.004 0.27,-0.022 4.089,-0.836 8.099,-1.883 9.56,-6.484 1.303,-4.102 -0.665,-9.19 -4.542,-12.298 m 51.47,87.405 83.089,66.097 -35.925,4.889 c 8.928,23.707 17.863,47.414 26.795,71.12 0.301,0.797 0.533,1.621 0.85,2.595 -10.941,0 -21.579,-0.068 -32.214,0.059 -2.044,0.025 -2.844,-0.662 -3.527,-2.486 -2.734,-7.294 -5.487,-14.581 -8.238,-21.869 L 25.398,186.174 4.896,157.331 8.828,134.36 c -4.409,0.003 -8.818,0.024 -13.227,0.068 -1.776,0.017 -2.557,-0.523 -3.19,-2.203 -8.352,-22.189 -16.749,-44.362 -25.147,-66.533 L -84.271,53.03 -59.825,-2.061 c -0.065,-0.149 -0.13,-0.295 -0.193,-0.462 -14.459,-38.378 -29.002,-76.725 -43.527,-115.079 -1.818,-4.8 -3.632,-9.603 -5.512,-14.576 0.754,-0.062 1.188,-0.131 1.623,-0.131 24.876,0.005 49.754,-0.147 74.628,0.095 11.919,0.116 23.675,1.845 34.836,6.401 11.296,4.611 20.715,11.436 25.392,23.172 10.339,29.609 -14.537,34.856 -15.145,35.245 23.806,5.368 32.286,24.319 33.449,34.408 1.127,9.772 -1.39,17.28 -7.497,22.671" /></g><g
           transform="translate(441.9307,298.4219)"
           id="g14814"><path
             id="path14816"
             style="fill:#a7a9ac;fill-opacity:1;fill-rule:nonzero;stroke:none"
             d="m 0,0 -12.393,-1.364 c 0.374,1.055 0.756,2.148 1.176,3.325 h -2.784 c -9.81,0 -19.619,-0.066 -29.427,0.056 -2.001,0.024 -5.539,-5.508 -6.233,-7.36 -7.764,-20.725 -13.473,-35.994 -21.31,-56.692 -0.279,-0.737 -0.093,-1.955 -0.581,-3.09 -0.596,1.388 -1.031,2.335 -1.416,3.302 -8.172,20.57 -16.356,41.136 -24.471,61.728 -0.61,1.549 -1.336,2.119 -3.052,2.102 -9.392,-0.097 -18.787,-0.091 -28.179,-0.006 -1.747,0.016 -2.568,-0.466 -3.211,-2.174 -1.6,-4.249 -3.208,-8.494 -4.81,-12.742 l -20.812,7.759 -32.683,-29.216 6.966,-9.985 34.883,0.59 c -8.488,-22.457 -16.984,-44.911 -25.481,-67.364 -0.988,-2.612 -1.972,-5.225 -3.047,-8.074 3.821,0 7.593,0.005 11.348,0.008 l -33.637,-106.237 57.533,107.12 c 0.267,0.328 0.491,0.744 0.692,1.287 5.289,14.305 10.677,28.575 16.038,42.853 0.957,2.55 1.918,5.107 2.883,7.674 l 28.135,-71.318 -22.068,-88.71 46.106,-0.452 13.865,107.728 -1.431,0.332 c 0.641,0.316 1.094,0.899 1.484,1.937 9.839,26.231 19.726,52.445 29.615,78.658 l 42.233,8.029 z" /></g><g
           transform="translate(537.4482,619.3735)"
           id="g14818"><path
             id="path14820"
             style="fill:#ffffff;fill-opacity:1;fill-rule:nonzero;stroke:none"
             d="m 0,0 -6.21,-16.396 c -0.376,-0.994 -0.778,-1.904 -1.205,-2.867 -0.199,-0.451 -0.419,-0.951 -0.667,-1.524 l -9.287,-21.567 -9.132,21.633 c -0.313,0.745 -0.597,1.406 -0.856,2.013 -0.54,1.262 -0.989,2.312 -1.411,3.374 l -6.904,17.36 c -9.736,24.482 -19.793,49.765 -29.622,74.734 -11.873,-0.112 -24.244,-0.113 -36.869,-0.006 -13.183,-35.008 -26.603,-70.435 -39.592,-104.726 l -10.678,-28.192 c -3.965,-10.472 -7.923,-20.946 -11.956,-31.616 l -0.92,-2.433 c 3.813,0.004 7.567,0.007 11.286,0.007 7.225,0 14.322,-0.014 21.475,-0.064 6.607,17.818 13.347,35.757 19.876,53.136 l 4.537,12.08 c 3.064,8.158 6.136,16.311 9.314,24.742 l 13.312,35.34 10.434,-25.499 c 0.438,-1.068 0.788,-1.919 1.129,-2.773 l 7,-17.593 c 10.355,-26.02 21.047,-52.89 31.528,-79.417 11.5,0.088 22.919,0.088 34.034,-0.002 17.225,45.826 34.752,92.33 51.715,137.338 l 11.163,29.62 C 50.365,76.683 39.758,76.671 28.988,76.777 19.37,51.131 9.527,25.151 0,0" /></g><g
           transform="translate(396.7925,248.1572)"
           id="g14822"><path
             id="path14824"
             style="fill:#ffffff;fill-opacity:1;fill-rule:nonzero;stroke:none"
             d="m 0,0 c -9.623,-25.666 -19.471,-51.664 -29.005,-76.833 l -6.166,-16.279 c -0.375,-0.99 -0.775,-1.898 -1.2,-2.861 -0.2,-0.455 -0.422,-0.959 -0.67,-1.535 l -9.191,-21.421 -9.206,21.415 c -0.306,0.709 -0.583,1.343 -0.838,1.927 -0.559,1.275 -1.024,2.345 -1.454,3.427 l -5.408,13.611 c -10.225,25.73 -20.783,52.3 -31.129,78.534 -11.91,-0.101 -24.037,-0.105 -36.884,-0.004 -17.601,-46.725 -35.524,-94.079 -52.869,-139.908 l -10.241,-27.058 c 3.741,0.004 7.426,0.006 11.077,0.006 7.287,0 14.441,-0.013 21.659,-0.061 6.082,16.412 12.294,32.939 18.314,48.953 l 5.291,14.083 c 3.321,8.845 6.647,17.689 10.083,26.826 l 13.302,35.383 10.464,-25.424 c 0.445,-1.072 0.8,-1.927 1.142,-2.789 l 7.741,-19.454 c 10.115,-25.41 20.561,-51.654 30.766,-77.573 10.976,0.112 22.408,0.112 34.069,0.005 16.87,44.955 34.051,90.488 50.678,134.551 L 32.553,-0.064 C 31.952,-0.065 31.351,-0.066 30.75,-0.067 20.678,-0.085 10.294,-0.104 0,0" /></g><g
           transform="translate(449.6719,411.2329)"
           id="g14826"><path
             id="path14828"
             style="fill:#ffffff;fill-opacity:1;fill-rule:nonzero;stroke:none"
             d="m 0,0 c -7.393,-6.295 -16.96,-9.644 -28.432,-9.954 -6.34,-0.17 -12.593,-0.22 -18.934,-0.22 -4.437,0 -8.916,0.024 -13.5,0.049 -4.565,0.025 -9.173,0.051 -13.844,0.051 h -14.334 l 7.511,20.496 c 3.435,9.387 6.679,18.252 10.082,27.242 1.803,4.757 6.968,8.314 12.045,8.314 0.035,0 0.069,0 0.104,0 12.309,-0.118 24.803,-0.34 36.886,-0.557 l 8.037,-0.142 c 0.737,-0.013 1.426,-0.082 2.106,-0.21 C -6.748,44.014 6.156,41.549 9.553,28.081 12.186,17.643 8.704,7.408 0,0 m -14.755,-47.457 c 3.216,-10.125 -1.016,-22.386 -10.291,-29.819 -7.789,-6.245 -17.547,-9.69 -28.217,-9.962 -7.055,-0.179 -14.006,-0.231 -21.054,-0.231 -4.852,0 -9.748,0.024 -14.761,0.05 -4.962,0.025 -9.962,0.05 -15.014,0.05 h -14.491 l 7.876,20.833 c 3.715,9.837 7.223,19.129 10.892,28.542 1.828,4.691 7.006,8.208 12.068,8.208 h 0.08 c 13.365,-0.108 26.926,-0.319 40.042,-0.523 l 8.312,-0.128 c 0.496,-0.007 1.283,-0.038 2.228,-0.229 5.93,-1.212 18.178,-3.717 22.33,-16.791 M 28.501,65.306 c -10.831,4.076 -22.99,5.93 -39.426,6.01 -14.569,0.072 -29.396,0.068 -43.733,0.063 -13.238,-0.004 -26.894,-0.008 -40.393,0.047 -18.122,-48.092 -36.611,-96.898 -54.499,-144.125 l -15.196,-40.128 c 6.966,-0.006 13.933,-0.016 20.899,-0.027 26.968,-0.045 54.857,-0.089 82.254,0.18 19.089,0.184 35.466,3.173 50.069,9.133 17.538,7.159 28.215,16.694 33.584,29.996 4.046,11.691 4.316,21.167 0.8,28.167 -2.99,5.952 -8.932,9.693 -17.032,12.897 -0.969,0.384 -1.475,0.681 -3.159,1.383 l -20.224,7.86 25.279,9.296 c 8.643,3.768 38.775,17.429 42.013,45.513 1.969,17.064 -4.581,27.468 -21.236,33.735" /></g><g
           transform="translate(383.4253,529.1675)"
           id="g14830"><path
             id="path14832"
             style="fill:#005474;fill-opacity:1;fill-rule:nonzero;stroke:none"
             d="m 0,0 c 7.225,0 14.322,-0.014 21.475,-0.064 6.607,17.818 13.347,35.757 19.876,53.136 l 4.537,12.08 c 3.064,8.158 6.136,16.311 9.314,24.743 l 13.312,35.339 10.434,-25.499 c 0.438,-1.068 0.788,-1.919 1.129,-2.773 l 7,-17.593 c 10.355,-26.02 21.047,-52.89 31.528,-79.417 11.5,0.089 22.919,0.088 34.034,-0.002 17.225,45.826 34.752,92.33 51.715,137.338 l 11.163,29.62 c -11.129,-0.019 -21.736,-0.031 -32.506,0.075 -9.618,-25.646 -19.461,-51.626 -28.988,-76.777 l -6.21,-16.395 c -0.376,-0.995 -0.778,-1.905 -1.205,-2.868 -0.199,-0.451 -0.419,-0.951 -0.667,-1.524 l -9.287,-21.566 -9.132,21.632 c -0.314,0.745 -0.597,1.406 -0.856,2.013 -0.541,1.262 -0.989,2.313 -1.411,3.374 l -6.904,17.36 C 108.615,116.714 98.558,141.997 88.729,166.966 76.856,166.854 64.485,166.853 51.86,166.96 38.677,131.952 25.257,96.525 12.268,62.234 L 1.59,34.042 C -2.375,23.57 -6.333,13.096 -10.366,2.426 l -0.92,-2.433 C -7.473,-0.003 -3.719,0 0,0 m 24.879,-20.114 c -0.059,0 -0.118,0 -0.175,0.001 -12.396,0.108 -24.579,0.095 -37.475,0.08 -4.305,-0.004 -8.637,-0.009 -13.006,-0.009 h -14.49 l 11.171,29.546 c 4.034,10.675 7.994,21.153 11.96,31.629 l 10.679,28.194 c 13.381,35.325 27.217,71.853 40.749,107.803 2.462,6.537 7.445,9.955 14.391,9.884 14.747,-0.147 29.175,-0.146 42.883,0.005 7.049,0.05 12.107,-3.348 14.687,-9.904 10.034,-25.51 20.333,-51.411 30.307,-76.485 9.462,24.979 19.208,50.717 28.711,76.075 3.242,8.65 9.898,10.407 14.937,10.334 12.082,-0.145 23.944,-0.125 36.5,-0.105 4.337,0.007 8.697,0.014 13.088,0.014 h 13.782 l -4.259,-13.106 c -0.15,-0.457 -0.285,-0.891 -0.415,-1.308 -0.313,-1.002 -0.636,-2.037 -1.048,-3.132 L 223.09,130.226 C 205.711,84.113 187.74,36.432 170.111,-10.48 c -3.023,-8.042 -9.211,-9.673 -13.783,-9.627 -13.432,0.134 -27.348,0.136 -41.361,0.003 -4.483,-0.037 -10.592,1.567 -13.712,9.473 C 90.616,16.316 79.727,43.682 69.177,70.195 67.653,66.146 66.142,62.131 64.634,58.114 L 60.095,46.03 C 53.184,27.635 46.038,8.613 39.105,-10.117 c -3.052,-8.239 -9.382,-9.997 -14.226,-9.997" /></g><g
           transform="translate(213.6089,81.1787)"
           id="g14834"><path
             id="path14836"
             style="fill:#005474;fill-opacity:1;fill-rule:nonzero;stroke:none"
             d="m 0,0 c 7.286,0 14.441,-0.014 21.658,-0.062 6.083,16.413 12.295,32.94 18.315,48.954 l 5.291,14.083 c 3.321,8.844 6.646,17.688 10.082,26.826 L 68.649,125.184 79.113,99.76 c 0.445,-1.072 0.799,-1.928 1.141,-2.789 l 7.742,-19.454 c 10.114,-25.411 20.561,-51.655 30.766,-77.574 10.976,0.113 22.407,0.113 34.069,0.005 16.87,44.955 34.05,90.489 50.677,134.552 l 12.229,32.414 c -0.602,-10e-4 -1.202,-0.002 -1.804,-0.003 -10.071,-0.017 -20.455,-0.036 -30.749,0.068 -9.623,-25.667 -19.472,-51.665 -29.006,-76.833 l -6.166,-16.28 c -0.374,-0.989 -0.775,-1.897 -1.199,-2.86 -0.2,-0.455 -0.422,-0.959 -0.67,-1.535 l -9.192,-21.421 -9.206,21.415 c -0.306,0.709 -0.582,1.343 -0.838,1.927 -0.558,1.275 -1.023,2.344 -1.453,3.426 L 120.045,88.43 C 109.821,114.159 99.262,140.729 88.917,166.964 77.006,166.862 64.879,166.858 52.033,166.96 34.432,120.234 16.509,72.881 -0.836,27.052 L -11.077,-0.007 C -7.336,-0.003 -3.652,0 0,0 m 115.684,-20.114 c -8.71,0 -12.648,5.339 -14.42,9.844 -10.55,26.817 -21.389,54.047 -31.871,80.381 l -0.03,0.074 C 67.566,65.406 65.787,60.671 64.009,55.936 L 58.715,41.847 C 52.313,24.814 45.692,7.202 39.279,-10.141 36.867,-16.666 31.942,-20.11 25.032,-20.11 h -0.17 c -12.428,0.103 -24.627,0.089 -37.545,0.078 -4.265,-0.005 -8.556,-0.009 -12.879,-0.009 h -14.48 l 20.479,54.181 c 17.74,46.87 36.084,95.337 54.045,143.032 1.693,4.497 5.535,9.839 14.221,9.839 h 0.193 c 15.227,-0.139 29.387,-0.134 43.289,0.008 4.666,0.082 10.97,-1.574 14.127,-9.582 10.085,-25.591 20.4,-51.562 30.429,-76.799 9.469,24.997 19.222,50.755 28.73,76.132 2.55,6.803 7.747,10.328 14.993,10.263 11.119,-0.139 22.465,-0.119 33.434,-0.099 3.95,0.006 7.898,0.013 11.849,0.013 h 18.505 l -4.781,-13.379 c -0.385,-1.079 -0.748,-2.113 -1.101,-3.116 -0.737,-2.093 -1.432,-4.067 -2.188,-6.074 L 222.243,127.432 C 205.235,82.358 187.649,35.75 170.441,-10.119 c -1.728,-4.61 -5.653,-10.064 -14.709,-9.986 -13.681,0.148 -27.067,0.147 -39.789,-0.007 -0.087,-0.001 -0.174,-0.002 -0.259,-0.002" /></g><g
           transform="translate(389.2695,421.1289)"
           id="g14838"><path
             id="path14840"
             style="fill:#005474;fill-opacity:1;fill-rule:nonzero;stroke:none"
             d="m 0,0 c 10.841,-0.061 21.093,-0.112 31.431,0.167 6.882,0.186 12.113,1.881 15.993,5.184 3.734,3.179 3.626,5.912 3.116,7.938 -0.064,0.257 -0.122,0.351 -0.123,0.352 -0.263,0.298 -1.322,0.919 -5.375,1.733 l -7.414,0.131 C 27.229,15.691 16.521,15.882 5.918,16.006 3.94,10.724 1.991,5.43 0,0 m 13.036,-20.07 c -4.436,0 -8.915,0.024 -13.5,0.049 -4.564,0.025 -9.173,0.051 -13.844,0.051 h -14.334 l 7.512,20.496 c 3.434,9.387 6.678,18.252 10.082,27.242 1.802,4.757 6.967,8.314 12.045,8.314 0.034,0 0.068,0 0.104,0 12.308,-0.118 24.802,-0.34 36.885,-0.557 l 8.037,-0.142 c 0.738,-0.013 1.426,-0.082 2.106,-0.21 5.525,-1.055 18.43,-3.52 21.826,-16.988 C 72.588,7.747 69.106,-2.488 60.402,-9.896 53.01,-16.191 43.442,-19.54 31.971,-19.85 25.63,-20.02 19.377,-20.07 13.036,-20.07 m 7.746,-40.284 h 0.014 z m -50.006,-16.935 c 0.217,-0.001 0.433,-0.002 0.651,-0.003 12.136,-0.062 23.597,-0.121 35.202,0.176 6.346,0.161 11.797,2.034 16.205,5.567 3.011,2.413 4.358,6.154 3.729,8.135 -0.353,1.114 -0.87,1.873 -6.463,3.07 l -7.635,0.118 c -11.479,0.179 -23.3,0.363 -35.001,0.479 -2.234,-5.786 -4.436,-11.585 -6.688,-17.542 m 15.309,-20.076 c -4.852,0 -9.748,0.024 -14.76,0.05 -4.963,0.025 -9.963,0.05 -15.015,0.05 h -14.491 l 7.877,20.833 c 3.714,9.837 7.222,19.129 10.891,28.542 1.829,4.691 7.007,8.208 12.068,8.208 h 0.08 c 13.365,-0.108 26.927,-0.319 40.042,-0.523 l 8.312,-0.128 c 0.496,-0.007 1.283,-0.038 2.228,-0.229 5.93,-1.212 18.178,-3.717 22.33,-16.791 3.216,-10.125 -1.015,-22.386 -10.291,-29.819 -7.789,-6.245 -17.546,-9.69 -28.217,-9.962 -7.055,-0.179 -14.005,-0.231 -21.054,-0.231 m -90.428,-25.358 c 6.966,-0.006 13.932,-0.016 20.899,-0.027 26.967,-0.045 54.856,-0.089 82.253,0.18 19.089,0.184 35.466,3.173 50.069,9.133 17.538,7.159 28.216,16.694 33.584,29.996 4.047,11.691 4.316,21.167 0.801,28.167 -2.991,5.952 -8.933,9.693 -17.033,12.897 -0.968,0.384 -1.475,0.681 -3.159,1.383 l -20.223,7.86 25.278,9.296 c 8.644,3.768 38.775,17.429 42.014,45.513 1.968,17.064 -4.581,27.468 -21.237,33.735 -10.831,4.076 -22.99,5.93 -39.425,6.01 C 34.908,61.492 20.081,61.488 5.744,61.483 -7.493,61.479 -21.15,61.475 -34.649,61.53 -52.771,13.438 -71.259,-35.368 -89.148,-82.595 Z m 51.58,-20.084 c -10.32,0 -20.581,0.017 -30.713,0.034 -10.924,0.016 -21.857,0.039 -32.772,0.032 -0.942,0 -1.741,0.081 -2.445,0.152 -0.26,0.027 -0.554,0.057 -0.899,0.086 l -13.218,1.11 24.937,65.892 c 18.193,48.029 37.007,97.693 55.42,146.569 2.624,6.966 7.646,10.498 14.923,10.498 h 0.106 c 14.38,-0.068 29.012,-0.064 43.162,-0.06 14.365,0.004 29.217,0.009 43.838,-0.063 18.919,-0.092 33.223,-2.341 46.379,-7.292 25.326,-9.53 37.109,-28.469 34.076,-54.77 -1.717,-14.883 -11.76,-39.751 -37.862,-53.797 4.337,-4.007 7.161,-8.237 8.986,-11.871 6.064,-12.071 6.11,-26.862 0.139,-43.963 l -0.151,-0.405 c -7.39,-18.543 -22.01,-32.059 -44.698,-41.321 -16.988,-6.934 -35.777,-10.407 -57.441,-10.618 -17.195,-0.167 -34.562,-0.213 -51.767,-0.213" /></g></g></g></g></svg>
