<?xml version="1.0" encoding="UTF-8" standalone="no"?>
<svg
   xmlns:dc="http://purl.org/dc/elements/1.1/"
   xmlns:cc="http://creativecommons.org/ns#"
   xmlns:rdf="http://www.w3.org/1999/02/22-rdf-syntax-ns#"
   xmlns:svg="http://www.w3.org/2000/svg"
   xmlns="http://www.w3.org/2000/svg"
   xmlns:sodipodi="http://sodipodi.sourceforge.net/DTD/sodipodi-0.dtd"
   xmlns:inkscape="http://www.inkscape.org/namespaces/inkscape"
   inkscape:version="1.0 (4035a4fb49, 2020-05-01)"
   sodipodi:docname="NISEI_ANARCH.svg"
   viewBox="0 0 1056 1056"
   height="1056"
   width="1056"
   xml:space="preserve"
   id="svg346"
   version="1.1"><metadata
     id="metadata352"><rdf:RDF><cc:Work
         rdf:about=""><dc:format>image/svg+xml</dc:format><dc:type
           rdf:resource="http://purl.org/dc/dcmitype/StillImage" /><dc:title></dc:title></cc:Work></rdf:RDF></metadata><defs
     id="defs350"><clipPath
       id="clipPath362"
       clipPathUnits="userSpaceOnUse"><path
         id="path360"
         d="M 0,792 H 792 V 0 H 0 Z" /></clipPath></defs><sodipodi:namedview
     inkscape:current-layer="g354"
     inkscape:window-maximized="0"
     inkscape:window-y="0"
     inkscape:window-x="0"
     inkscape:cy="528"
     inkscape:cx="528"
     inkscape:zoom="0.81439394"
     showgrid="false"
     id="namedview348"
     inkscape:window-height="480"
     inkscape:window-width="737"
     inkscape:pageshadow="2"
     inkscape:pageopacity="0"
     guidetolerance="10"
     gridtolerance="10"
     objecttolerance="10"
     borderopacity="1"
     bordercolor="#666666"
     pagecolor="#ffffff" /><g
     transform="matrix(1.3333333,0,0,-1.3333333,0,1056)"
     inkscape:label="Anarch Glyph 2"
     inkscape:groupmode="layer"
     id="g354"><g
       id="g356"><g
         clip-path="url(#clipPath362)"
         id="g358"><g
           transform="translate(531.6348,415.5415)"
           id="g364"><path
             id="path366"
             style="fill:#e26b35;fill-opacity:1;fill-rule:nonzero;stroke:none"
             d="m 0,0 -9.027,-20.894 67.785,6.105 c 32.881,-26.53 66.346,-52.424 100.23,-77.531 l -173.83,46.231 -0.929,-20.449 274.511,-73.006 -44.719,31.924 C 163.424,-71.499 113.582,-33.519 65.056,5.846 L 13.87,1.249 Z" /></g><g
           transform="translate(202.4829,422.9902)"
           id="g368"><path
             id="path370"
             style="fill:#e26b35;fill-opacity:1;fill-rule:nonzero;stroke:none"
             d="m 0,0 10.418,18.858 -29.709,3.695 c 0.587,2.155 1.193,4.314 1.77,6.467 20.24,75.512 37.798,152.568 52.343,229.667 L 74.171,106.723 85.634,142.238 31.156,352.629 23.238,306.971 C 7.386,215.555 -12.827,123.781 -36.839,34.198 -39.392,24.674 -42.044,15.128 -44.774,5.569 l 32.447,-4.036 z" /></g><g
           transform="translate(201.0825,286.5117)"
           id="g372"><path
             id="path374"
             style="fill:#e26b35;fill-opacity:1;fill-rule:nonzero;stroke:none"
             d="m 0,0 -113.389,-123.999 c 28.516,74.513 56.529,151.745 79.823,228.596 l 16.238,-2.02 10.418,18.859 -20.865,2.594 -20.096,2.5 C -76.926,27.832 -114.449,-72.087 -151.208,-166.354 l -19.471,-49.933 182.882,199.994 z" /></g><g
           transform="translate(324.4292,564.0249)"
           id="g376"><path
             id="path378"
             style="fill:#e26b35;fill-opacity:1;fill-rule:nonzero;stroke:none"
             d="M 0,0 -27.773,107.258 C 38.6,37.599 108.765,-29.421 181.217,-92.346 c 7.848,-6.816 15.742,-13.596 23.678,-20.346 l -31.715,-2.856 28.25,-17.536 18.742,1.688 34.532,3.109 c -20.384,16.788 -40.529,33.808 -60.371,51.041 C 112.59,-6.253 33.778,69.987 -39.914,149.356 L -66.845,178.361 -23.213,9.86 Z" /></g><g
           transform="translate(514.2441,313.4111)"
           id="g380"><path
             id="path382"
             style="fill:#e26b35;fill-opacity:1;fill-rule:nonzero;stroke:none"
             d="M 0,0 140.756,-36.648 C 92.591,-42.495 44.656,-50.556 -2.765,-60.776 l -0.94,-20.67 C 62.626,-66.917 130,-56.671 197.614,-50.859 l 57.965,4.981 -254.65,66.303 z" /></g><g
           transform="translate(269.1499,180.6211)"
           id="g384"><path
             id="path386"
             style="fill:#e26b35;fill-opacity:1;fill-rule:nonzero;stroke:none"
             d="m 0,0 c -61.347,-23.149 -113.526,-46.754 -157.833,-68.54 l 122.673,130.492 -12.172,16.252 -204.841,-217.897 52.503,27.459 c 51.467,26.917 116.458,58.944 198.302,90.317 z" /></g><g
           transform="translate(495.0137,330.7881)"
           id="g388"><path
             id="path390"
             style="fill:#e26b35;fill-opacity:1;fill-rule:nonzero;stroke:none"
             d="m 0,0 -8.979,-20.782 -48.014,25.1 -5.129,-11.316 -59.092,26.385 -12.317,-23.758 -75.202,33.527 21.902,41.398 22.95,-7.265 37,14.886 1.8,16.304 -115.868,49.736 -71.809,-129.99 108.179,-144.441 -6.158,-98.656 89.91,34.649 -0.152,-30.648 86.324,34.667 -3.876,57.069 34.308,40.296 z" /></g><g
           transform="translate(331.939,372.8428)"
           id="g392"><path
             id="path394"
             style="fill:#e26b35;fill-opacity:1;fill-rule:nonzero;stroke:none"
             d="m 0,0 -13.882,4.396 -4.094,-7.738 38.442,-17.138 12.321,23.767 58.16,-25.969 5.652,12.471 47.678,-24.925 34.245,79.252 -44.522,27.638 6.498,14.335 -52.383,19.65 6.218,11.506 -64.848,22.88 5.499,11.277 -62.455,26.53 L -48.915,111.494 59.499,64.957 54.76,22.032 Z" /></g></g></g></g></svg>
